<mxfile host="Electron" modified="2024-04-11T08:05:03.398Z" agent="Mozilla/5.0 (Windows NT 10.0; Win64; x64) AppleWebKit/537.36 (KHTML, like Gecko) draw.io/24.1.0 Chrome/120.0.6099.109 Electron/28.1.0 Safari/537.36" etag="GYebLQ9K7BaxTs3CW-BG" version="24.1.0" type="device">
  <diagram id="C5RBs43oDa-KdzZeNtuy" name="Page-1">
    <mxGraphModel dx="3787" dy="2900" grid="0" gridSize="10" guides="1" tooltips="1" connect="1" arrows="1" fold="1" page="1" pageScale="1" pageWidth="827" pageHeight="1169" math="0" shadow="0">
      <root>
        <mxCell id="WIyWlLk6GJQsqaUBKTNV-0" />
        <mxCell id="WIyWlLk6GJQsqaUBKTNV-1" parent="WIyWlLk6GJQsqaUBKTNV-0" />
        <mxCell id="cPJrFpIsc6c82qLKrWnZ-4" value="&lt;font style=&quot;font-size: 15px;&quot;&gt;BIBLIOTECA&lt;/font&gt;" style="rounded=0;whiteSpace=wrap;html=1;fillColor=#f5f5f5;fontColor=#333333;strokeColor=#666666;" parent="WIyWlLk6GJQsqaUBKTNV-1" vertex="1">
          <mxGeometry x="702" y="243" width="120" height="30" as="geometry" />
        </mxCell>
        <mxCell id="cPJrFpIsc6c82qLKrWnZ-5" value="&lt;font style=&quot;font-size: 15px;&quot;&gt;UTENTE&lt;/font&gt;" style="rounded=0;whiteSpace=wrap;html=1;fillColor=#f5f5f5;fontColor=#333333;strokeColor=#666666;" parent="WIyWlLk6GJQsqaUBKTNV-1" vertex="1">
          <mxGeometry x="392" y="-253" width="120" height="30" as="geometry" />
        </mxCell>
        <mxCell id="cPJrFpIsc6c82qLKrWnZ-6" value="&lt;font style=&quot;font-size: 15px;&quot;&gt;EVENTO&lt;/font&gt;" style="rounded=0;whiteSpace=wrap;html=1;fillColor=#f5f5f5;fontColor=#333333;strokeColor=#666666;" parent="WIyWlLk6GJQsqaUBKTNV-1" vertex="1">
          <mxGeometry x="748" y="-42" width="120" height="30" as="geometry" />
        </mxCell>
        <mxCell id="cPJrFpIsc6c82qLKrWnZ-7" value="&lt;font style=&quot;font-size: 15px;&quot;&gt;GIORNALE&lt;/font&gt;" style="rounded=0;whiteSpace=wrap;html=1;fillColor=#f5f5f5;fontColor=#333333;strokeColor=#666666;" parent="WIyWlLk6GJQsqaUBKTNV-1" vertex="1">
          <mxGeometry x="827" y="801.5" width="120" height="30" as="geometry" />
        </mxCell>
        <mxCell id="cPJrFpIsc6c82qLKrWnZ-8" value="&lt;font style=&quot;font-size: 15px;&quot;&gt;LIBRO&lt;/font&gt;" style="rounded=0;whiteSpace=wrap;html=1;fillColor=#f5f5f5;fontColor=#333333;strokeColor=#666666;" parent="WIyWlLk6GJQsqaUBKTNV-1" vertex="1">
          <mxGeometry x="1228" y="953" width="120" height="30" as="geometry" />
        </mxCell>
        <mxCell id="cPJrFpIsc6c82qLKrWnZ-9" value="&lt;font style=&quot;font-size: 15px;&quot;&gt;MULTIMEDIALE&lt;/font&gt;" style="rounded=0;whiteSpace=wrap;html=1;fillColor=#f5f5f5;fontColor=#333333;strokeColor=#666666;" parent="WIyWlLk6GJQsqaUBKTNV-1" vertex="1">
          <mxGeometry x="360" y="808" width="120" height="30" as="geometry" />
        </mxCell>
        <mxCell id="cPJrFpIsc6c82qLKrWnZ-16" value="&lt;span style=&quot;font-size: 14px;&quot;&gt;BIBLIOTECARIO&lt;/span&gt;" style="rounded=0;whiteSpace=wrap;html=1;fillColor=#f5f5f5;fontColor=#333333;strokeColor=#666666;" parent="WIyWlLk6GJQsqaUBKTNV-1" vertex="1">
          <mxGeometry x="605" y="-153" width="120" height="30" as="geometry" />
        </mxCell>
        <mxCell id="cPJrFpIsc6c82qLKrWnZ-17" value="&lt;u&gt;ISBN&lt;/u&gt;" style="ellipse;whiteSpace=wrap;html=1;" parent="WIyWlLk6GJQsqaUBKTNV-1" vertex="1">
          <mxGeometry x="1276" y="1064" width="57" height="36" as="geometry" />
        </mxCell>
        <mxCell id="cPJrFpIsc6c82qLKrWnZ-18" value="&lt;u&gt;ISSN&lt;/u&gt;" style="ellipse;whiteSpace=wrap;html=1;" parent="WIyWlLk6GJQsqaUBKTNV-1" vertex="1">
          <mxGeometry x="868" y="908" width="57" height="36" as="geometry" />
        </mxCell>
        <mxCell id="cPJrFpIsc6c82qLKrWnZ-20" value="" style="endArrow=none;html=1;rounded=0;exitX=0.5;exitY=0;exitDx=0;exitDy=0;entryX=0.5;entryY=1;entryDx=0;entryDy=0;" parent="WIyWlLk6GJQsqaUBKTNV-1" source="cPJrFpIsc6c82qLKrWnZ-18" target="cPJrFpIsc6c82qLKrWnZ-7" edge="1">
          <mxGeometry width="50" height="50" relative="1" as="geometry">
            <mxPoint x="753" y="844.5" as="sourcePoint" />
            <mxPoint x="803" y="794.5" as="targetPoint" />
          </mxGeometry>
        </mxCell>
        <mxCell id="cPJrFpIsc6c82qLKrWnZ-21" value="" style="endArrow=none;html=1;rounded=0;exitX=0;exitY=0;exitDx=0;exitDy=0;entryX=0.25;entryY=1;entryDx=0;entryDy=0;" parent="WIyWlLk6GJQsqaUBKTNV-1" source="cPJrFpIsc6c82qLKrWnZ-17" target="cPJrFpIsc6c82qLKrWnZ-8" edge="1">
          <mxGeometry width="50" height="50" relative="1" as="geometry">
            <mxPoint x="1121" y="909" as="sourcePoint" />
            <mxPoint x="1171" y="859" as="targetPoint" />
          </mxGeometry>
        </mxCell>
        <mxCell id="cPJrFpIsc6c82qLKrWnZ-22" value="&lt;font style=&quot;font-size: 15px;&quot;&gt;HA&lt;/font&gt;" style="rhombus;whiteSpace=wrap;html=1;shadow=0;rounded=0;perimeterSpacing=0;strokeWidth=1;fillColor=#f5f5f5;fontColor=#333333;strokeColor=#666666;fillStyle=auto;double=1;" parent="WIyWlLk6GJQsqaUBKTNV-1" vertex="1">
          <mxGeometry x="1181" y="852" width="86" height="59" as="geometry" />
        </mxCell>
        <mxCell id="cPJrFpIsc6c82qLKrWnZ-24" value="" style="endArrow=none;html=1;rounded=0;entryX=0.5;entryY=1;entryDx=0;entryDy=0;exitX=0.1;exitY=0;exitDx=0;exitDy=0;exitPerimeter=0;" parent="WIyWlLk6GJQsqaUBKTNV-1" source="cPJrFpIsc6c82qLKrWnZ-8" target="cPJrFpIsc6c82qLKrWnZ-22" edge="1">
          <mxGeometry width="50" height="50" relative="1" as="geometry">
            <mxPoint x="1033" y="821" as="sourcePoint" />
            <mxPoint x="1083" y="771" as="targetPoint" />
          </mxGeometry>
        </mxCell>
        <mxCell id="cPJrFpIsc6c82qLKrWnZ-25" value="&lt;span style=&quot;font-size: 15px;&quot;&gt;COPIA&lt;/span&gt;" style="rounded=0;whiteSpace=wrap;html=1;fillColor=#f5f5f5;fontColor=#333333;strokeColor=#666666;" parent="WIyWlLk6GJQsqaUBKTNV-1" vertex="1">
          <mxGeometry x="1153" y="721" width="120" height="30" as="geometry" />
        </mxCell>
        <mxCell id="cPJrFpIsc6c82qLKrWnZ-26" value="" style="endArrow=none;html=1;rounded=0;entryX=0.5;entryY=1;entryDx=0;entryDy=0;shape=link;exitX=0.5;exitY=0;exitDx=0;exitDy=0;" parent="WIyWlLk6GJQsqaUBKTNV-1" source="cPJrFpIsc6c82qLKrWnZ-22" target="cPJrFpIsc6c82qLKrWnZ-25" edge="1">
          <mxGeometry width="50" height="50" relative="1" as="geometry">
            <mxPoint x="1222" y="752" as="sourcePoint" />
            <mxPoint x="1084" y="668" as="targetPoint" />
          </mxGeometry>
        </mxCell>
        <mxCell id="cPJrFpIsc6c82qLKrWnZ-27" value="&lt;font style=&quot;font-size: 15px;&quot;&gt;HA&lt;/font&gt;" style="rhombus;whiteSpace=wrap;html=1;shadow=0;rounded=0;perimeterSpacing=0;strokeWidth=1;fillColor=#f5f5f5;fontColor=#333333;strokeColor=#666666;fillStyle=auto;double=1;" parent="WIyWlLk6GJQsqaUBKTNV-1" vertex="1">
          <mxGeometry x="779" y="683.5" width="86" height="59" as="geometry" />
        </mxCell>
        <mxCell id="cPJrFpIsc6c82qLKrWnZ-28" value="&lt;span style=&quot;font-size: 15px;&quot;&gt;COPIA&lt;/span&gt;" style="rounded=0;whiteSpace=wrap;html=1;fillColor=#f5f5f5;fontColor=#333333;strokeColor=#666666;" parent="WIyWlLk6GJQsqaUBKTNV-1" vertex="1">
          <mxGeometry x="728.5" y="617.5" width="120" height="30" as="geometry" />
        </mxCell>
        <mxCell id="cPJrFpIsc6c82qLKrWnZ-29" value="" style="endArrow=none;html=1;rounded=0;entryX=0.5;entryY=1;entryDx=0;entryDy=0;exitX=0.5;exitY=0;exitDx=0;exitDy=0;shape=link;" parent="WIyWlLk6GJQsqaUBKTNV-1" source="cPJrFpIsc6c82qLKrWnZ-27" target="cPJrFpIsc6c82qLKrWnZ-28" edge="1">
          <mxGeometry width="50" height="50" relative="1" as="geometry">
            <mxPoint x="594" y="611.5" as="sourcePoint" />
            <mxPoint x="644" y="561.5" as="targetPoint" />
          </mxGeometry>
        </mxCell>
        <mxCell id="cPJrFpIsc6c82qLKrWnZ-30" value="&lt;font style=&quot;font-size: 15px;&quot;&gt;HA&lt;/font&gt;" style="rhombus;whiteSpace=wrap;html=1;shadow=0;rounded=0;perimeterSpacing=0;strokeWidth=1;fillColor=#f5f5f5;fontColor=#333333;strokeColor=#666666;fillStyle=auto;double=1;" parent="WIyWlLk6GJQsqaUBKTNV-1" vertex="1">
          <mxGeometry x="380" y="696" width="86" height="59" as="geometry" />
        </mxCell>
        <mxCell id="cPJrFpIsc6c82qLKrWnZ-31" value="&lt;span style=&quot;font-size: 15px;&quot;&gt;COPIA&lt;/span&gt;" style="rounded=0;whiteSpace=wrap;html=1;fillColor=#f5f5f5;fontColor=#333333;strokeColor=#666666;" parent="WIyWlLk6GJQsqaUBKTNV-1" vertex="1">
          <mxGeometry x="380" y="628" width="120" height="30" as="geometry" />
        </mxCell>
        <mxCell id="cPJrFpIsc6c82qLKrWnZ-32" value="" style="endArrow=none;html=1;rounded=0;entryX=0.5;entryY=1;entryDx=0;entryDy=0;exitX=0.5;exitY=0;exitDx=0;exitDy=0;shape=link;" parent="WIyWlLk6GJQsqaUBKTNV-1" source="cPJrFpIsc6c82qLKrWnZ-30" target="cPJrFpIsc6c82qLKrWnZ-31" edge="1">
          <mxGeometry width="50" height="50" relative="1" as="geometry">
            <mxPoint x="228" y="536" as="sourcePoint" />
            <mxPoint x="278" y="486" as="targetPoint" />
          </mxGeometry>
        </mxCell>
        <mxCell id="cPJrFpIsc6c82qLKrWnZ-33" value="" style="endArrow=none;html=1;rounded=0;exitX=0.5;exitY=0;exitDx=0;exitDy=0;entryX=0.5;entryY=1;entryDx=0;entryDy=0;" parent="WIyWlLk6GJQsqaUBKTNV-1" source="cPJrFpIsc6c82qLKrWnZ-9" target="cPJrFpIsc6c82qLKrWnZ-30" edge="1">
          <mxGeometry width="50" height="50" relative="1" as="geometry">
            <mxPoint x="579" y="612" as="sourcePoint" />
            <mxPoint x="629" y="562" as="targetPoint" />
          </mxGeometry>
        </mxCell>
        <mxCell id="cPJrFpIsc6c82qLKrWnZ-34" value="" style="endArrow=none;html=1;rounded=0;entryX=0.5;entryY=1;entryDx=0;entryDy=0;exitX=0.5;exitY=0;exitDx=0;exitDy=0;" parent="WIyWlLk6GJQsqaUBKTNV-1" source="cPJrFpIsc6c82qLKrWnZ-7" target="cPJrFpIsc6c82qLKrWnZ-27" edge="1">
          <mxGeometry width="50" height="50" relative="1" as="geometry">
            <mxPoint x="663" y="757.5" as="sourcePoint" />
            <mxPoint x="713" y="707.5" as="targetPoint" />
          </mxGeometry>
        </mxCell>
        <mxCell id="cPJrFpIsc6c82qLKrWnZ-35" value="&lt;p style=&quot;line-height: 100%;&quot;&gt;&lt;u&gt;&lt;font style=&quot;font-size: 12px;&quot;&gt;ID_media&lt;/font&gt;&lt;/u&gt;&lt;/p&gt;" style="ellipse;whiteSpace=wrap;html=1;" parent="WIyWlLk6GJQsqaUBKTNV-1" vertex="1">
          <mxGeometry x="384" y="880" width="65" height="36" as="geometry" />
        </mxCell>
        <mxCell id="cPJrFpIsc6c82qLKrWnZ-36" value="" style="endArrow=none;html=1;rounded=0;exitX=0.5;exitY=0;exitDx=0;exitDy=0;entryX=0.5;entryY=1;entryDx=0;entryDy=0;" parent="WIyWlLk6GJQsqaUBKTNV-1" source="cPJrFpIsc6c82qLKrWnZ-35" target="cPJrFpIsc6c82qLKrWnZ-9" edge="1">
          <mxGeometry width="50" height="50" relative="1" as="geometry">
            <mxPoint x="393" y="831" as="sourcePoint" />
            <mxPoint x="442" y="795" as="targetPoint" />
          </mxGeometry>
        </mxCell>
        <mxCell id="cPJrFpIsc6c82qLKrWnZ-37" value="&lt;p style=&quot;line-height: 100%;&quot;&gt;&lt;font style=&quot;font-size: 12px;&quot;&gt;&lt;u&gt;ID_copia&lt;/u&gt;&lt;/font&gt;&lt;/p&gt;" style="ellipse;whiteSpace=wrap;html=1;noLabel=0;shadow=0;enumerate=0;treeFolding=0;snapToPoint=0;portConstraintRotation=0;" parent="WIyWlLk6GJQsqaUBKTNV-1" vertex="1">
          <mxGeometry x="559" y="597" width="65" height="36" as="geometry" />
        </mxCell>
        <mxCell id="cPJrFpIsc6c82qLKrWnZ-41" value="" style="endArrow=none;html=1;rounded=0;entryX=0.5;entryY=1;entryDx=0;entryDy=0;exitX=1;exitY=0.5;exitDx=0;exitDy=0;" parent="WIyWlLk6GJQsqaUBKTNV-1" source="cPJrFpIsc6c82qLKrWnZ-31" target="cPJrFpIsc6c82qLKrWnZ-37" edge="1">
          <mxGeometry width="50" height="50" relative="1" as="geometry">
            <mxPoint x="579" y="702" as="sourcePoint" />
            <mxPoint x="629" y="652" as="targetPoint" />
          </mxGeometry>
        </mxCell>
        <mxCell id="cPJrFpIsc6c82qLKrWnZ-47" value="&lt;p style=&quot;line-height: 100%;&quot;&gt;&lt;font style=&quot;font-size: 12px;&quot;&gt;&lt;u&gt;ID_biblioteca&lt;/u&gt;&lt;/font&gt;&lt;/p&gt;" style="ellipse;whiteSpace=wrap;html=1;" parent="WIyWlLk6GJQsqaUBKTNV-1" vertex="1">
          <mxGeometry x="1014" y="243" width="87" height="36" as="geometry" />
        </mxCell>
        <mxCell id="cPJrFpIsc6c82qLKrWnZ-48" value="" style="endArrow=none;html=1;rounded=0;entryX=0;entryY=0.5;entryDx=0;entryDy=0;exitX=1;exitY=0.5;exitDx=0;exitDy=0;" parent="WIyWlLk6GJQsqaUBKTNV-1" source="cPJrFpIsc6c82qLKrWnZ-4" target="cPJrFpIsc6c82qLKrWnZ-47" edge="1">
          <mxGeometry width="50" height="50" relative="1" as="geometry">
            <mxPoint x="961" y="313" as="sourcePoint" />
            <mxPoint x="1197" y="356" as="targetPoint" />
          </mxGeometry>
        </mxCell>
        <mxCell id="cPJrFpIsc6c82qLKrWnZ-49" value="&lt;p style=&quot;line-height: 100%;&quot;&gt;&lt;font style=&quot;font-size: 12px;&quot;&gt;&lt;u&gt;ID_evento&lt;/u&gt;&lt;/font&gt;&lt;/p&gt;" style="ellipse;whiteSpace=wrap;html=1;" parent="WIyWlLk6GJQsqaUBKTNV-1" vertex="1">
          <mxGeometry x="778" y="-159" width="65" height="36" as="geometry" />
        </mxCell>
        <mxCell id="cPJrFpIsc6c82qLKrWnZ-50" value="" style="endArrow=none;html=1;rounded=0;entryX=0.5;entryY=1;entryDx=0;entryDy=0;exitX=0.25;exitY=0;exitDx=0;exitDy=0;" parent="WIyWlLk6GJQsqaUBKTNV-1" source="cPJrFpIsc6c82qLKrWnZ-6" target="cPJrFpIsc6c82qLKrWnZ-49" edge="1">
          <mxGeometry width="50" height="50" relative="1" as="geometry">
            <mxPoint x="958.5" y="7" as="sourcePoint" />
            <mxPoint x="1194.5" y="50" as="targetPoint" />
          </mxGeometry>
        </mxCell>
        <mxCell id="cPJrFpIsc6c82qLKrWnZ-54" value="&lt;font style=&quot;font-size: 12px;&quot;&gt;E&#39; PROPRIETARIO&lt;/font&gt;" style="rhombus;whiteSpace=wrap;html=1;shadow=0;rounded=0;perimeterSpacing=0;strokeWidth=1;fillColor=#f5f5f5;fontColor=#333333;strokeColor=#666666;fillStyle=auto;double=0;" parent="WIyWlLk6GJQsqaUBKTNV-1" vertex="1">
          <mxGeometry x="479.5" y="353" width="133" height="83" as="geometry" />
        </mxCell>
        <mxCell id="cPJrFpIsc6c82qLKrWnZ-55" value="" style="endArrow=none;html=1;rounded=0;exitX=0.5;exitY=0;exitDx=0;exitDy=0;entryX=0.5;entryY=1;entryDx=0;entryDy=0;" parent="WIyWlLk6GJQsqaUBKTNV-1" source="cPJrFpIsc6c82qLKrWnZ-31" target="cPJrFpIsc6c82qLKrWnZ-54" edge="1">
          <mxGeometry width="50" height="50" relative="1" as="geometry">
            <mxPoint x="579" y="476" as="sourcePoint" />
            <mxPoint x="629" y="426" as="targetPoint" />
          </mxGeometry>
        </mxCell>
        <mxCell id="cPJrFpIsc6c82qLKrWnZ-56" value="" style="endArrow=none;html=1;rounded=0;entryX=0.25;entryY=1;entryDx=0;entryDy=0;exitX=0.5;exitY=0;exitDx=0;exitDy=0;" parent="WIyWlLk6GJQsqaUBKTNV-1" source="cPJrFpIsc6c82qLKrWnZ-54" target="cPJrFpIsc6c82qLKrWnZ-4" edge="1">
          <mxGeometry width="50" height="50" relative="1" as="geometry">
            <mxPoint x="624" y="456" as="sourcePoint" />
            <mxPoint x="674" y="406" as="targetPoint" />
          </mxGeometry>
        </mxCell>
        <mxCell id="cPJrFpIsc6c82qLKrWnZ-57" value="E&#39; PROPRIETARIO" style="rhombus;whiteSpace=wrap;html=1;shadow=0;rounded=0;perimeterSpacing=0;strokeWidth=1;fillColor=#f5f5f5;fontColor=#333333;strokeColor=#666666;fillStyle=auto;double=0;" parent="WIyWlLk6GJQsqaUBKTNV-1" vertex="1">
          <mxGeometry x="765.5" y="397" width="135.5" height="75" as="geometry" />
        </mxCell>
        <mxCell id="cPJrFpIsc6c82qLKrWnZ-58" value="" style="endArrow=none;html=1;rounded=0;exitX=0.5;exitY=0;exitDx=0;exitDy=0;entryX=0.5;entryY=1;entryDx=0;entryDy=0;" parent="WIyWlLk6GJQsqaUBKTNV-1" source="cPJrFpIsc6c82qLKrWnZ-28" target="cPJrFpIsc6c82qLKrWnZ-57" edge="1">
          <mxGeometry width="50" height="50" relative="1" as="geometry">
            <mxPoint x="527" y="618.5" as="sourcePoint" />
            <mxPoint x="733" y="435.5" as="targetPoint" />
          </mxGeometry>
        </mxCell>
        <mxCell id="cPJrFpIsc6c82qLKrWnZ-59" value="" style="endArrow=none;html=1;rounded=0;entryX=0.5;entryY=1;entryDx=0;entryDy=0;exitX=0.5;exitY=0;exitDx=0;exitDy=0;" parent="WIyWlLk6GJQsqaUBKTNV-1" source="cPJrFpIsc6c82qLKrWnZ-57" target="cPJrFpIsc6c82qLKrWnZ-4" edge="1">
          <mxGeometry width="50" height="50" relative="1" as="geometry">
            <mxPoint x="634" y="466" as="sourcePoint" />
            <mxPoint x="651" y="259" as="targetPoint" />
          </mxGeometry>
        </mxCell>
        <mxCell id="cPJrFpIsc6c82qLKrWnZ-60" value="E&#39; PROPRIETARIO" style="rhombus;whiteSpace=wrap;html=1;shadow=0;rounded=0;perimeterSpacing=0;strokeWidth=1;fillColor=#f5f5f5;fontColor=#333333;strokeColor=#666666;fillStyle=auto;double=0;" parent="WIyWlLk6GJQsqaUBKTNV-1" vertex="1">
          <mxGeometry x="1233" y="492" width="139.5" height="82" as="geometry" />
        </mxCell>
        <mxCell id="cPJrFpIsc6c82qLKrWnZ-61" value="" style="endArrow=none;html=1;rounded=0;exitX=0.5;exitY=0;exitDx=0;exitDy=0;entryX=0.5;entryY=1;entryDx=0;entryDy=0;" parent="WIyWlLk6GJQsqaUBKTNV-1" source="cPJrFpIsc6c82qLKrWnZ-25" target="cPJrFpIsc6c82qLKrWnZ-60" edge="1">
          <mxGeometry width="50" height="50" relative="1" as="geometry">
            <mxPoint x="1094" y="721" as="sourcePoint" />
            <mxPoint x="1300" y="538" as="targetPoint" />
          </mxGeometry>
        </mxCell>
        <mxCell id="cPJrFpIsc6c82qLKrWnZ-62" value="" style="endArrow=none;html=1;rounded=0;entryX=0.75;entryY=1;entryDx=0;entryDy=0;exitX=0.5;exitY=0;exitDx=0;exitDy=0;" parent="WIyWlLk6GJQsqaUBKTNV-1" source="cPJrFpIsc6c82qLKrWnZ-60" target="cPJrFpIsc6c82qLKrWnZ-4" edge="1">
          <mxGeometry width="50" height="50" relative="1" as="geometry">
            <mxPoint x="1072" y="446" as="sourcePoint" />
            <mxPoint x="1089" y="239" as="targetPoint" />
          </mxGeometry>
        </mxCell>
        <mxCell id="cPJrFpIsc6c82qLKrWnZ-63" value="&lt;p style=&quot;line-height: 100%;&quot;&gt;&lt;font style=&quot;font-size: 12px;&quot;&gt;&lt;u&gt;Inventario&lt;/u&gt;&lt;/font&gt;&lt;/p&gt;" style="ellipse;whiteSpace=wrap;html=1;noLabel=0;shadow=0;enumerate=0;treeFolding=0;snapToPoint=0;portConstraintRotation=0;" parent="WIyWlLk6GJQsqaUBKTNV-1" vertex="1">
          <mxGeometry x="519" y="546" width="65" height="36" as="geometry" />
        </mxCell>
        <mxCell id="cPJrFpIsc6c82qLKrWnZ-64" value="" style="endArrow=none;html=1;rounded=0;entryX=0.5;entryY=1;entryDx=0;entryDy=0;exitX=0;exitY=0;exitDx=0;exitDy=0;" parent="WIyWlLk6GJQsqaUBKTNV-1" source="cPJrFpIsc6c82qLKrWnZ-37" target="cPJrFpIsc6c82qLKrWnZ-63" edge="1">
          <mxGeometry width="50" height="50" relative="1" as="geometry">
            <mxPoint x="551.6978617776508" y="634.1737972499286" as="sourcePoint" />
            <mxPoint x="805" y="667" as="targetPoint" />
          </mxGeometry>
        </mxCell>
        <mxCell id="cPJrFpIsc6c82qLKrWnZ-65" value="&lt;p style=&quot;line-height: 100%;&quot;&gt;&lt;font style=&quot;font-size: 12px;&quot;&gt;&lt;u&gt;Comune&lt;/u&gt;&lt;/font&gt;&lt;/p&gt;" style="ellipse;whiteSpace=wrap;html=1;noLabel=0;shadow=0;enumerate=0;treeFolding=0;snapToPoint=0;portConstraintRotation=0;" parent="WIyWlLk6GJQsqaUBKTNV-1" vertex="1">
          <mxGeometry x="605" y="544" width="65" height="36" as="geometry" />
        </mxCell>
        <mxCell id="cPJrFpIsc6c82qLKrWnZ-66" value="" style="endArrow=none;html=1;rounded=0;entryX=0.5;entryY=1;entryDx=0;entryDy=0;exitX=1;exitY=0;exitDx=0;exitDy=0;" parent="WIyWlLk6GJQsqaUBKTNV-1" source="cPJrFpIsc6c82qLKrWnZ-37" target="cPJrFpIsc6c82qLKrWnZ-65" edge="1">
          <mxGeometry width="50" height="50" relative="1" as="geometry">
            <mxPoint x="659" y="627" as="sourcePoint" />
            <mxPoint x="895" y="670" as="targetPoint" />
          </mxGeometry>
        </mxCell>
        <mxCell id="cPJrFpIsc6c82qLKrWnZ-73" value="&lt;p style=&quot;line-height: 100%;&quot;&gt;&lt;font style=&quot;font-size: 12px;&quot;&gt;&lt;u&gt;ID_copia&lt;/u&gt;&lt;/font&gt;&lt;/p&gt;" style="ellipse;whiteSpace=wrap;html=1;noLabel=0;shadow=0;enumerate=0;treeFolding=0;snapToPoint=0;portConstraintRotation=0;" parent="WIyWlLk6GJQsqaUBKTNV-1" vertex="1">
          <mxGeometry x="890" y="563.5" width="65" height="36" as="geometry" />
        </mxCell>
        <mxCell id="cPJrFpIsc6c82qLKrWnZ-74" value="" style="endArrow=none;html=1;rounded=0;entryX=0.5;entryY=1;entryDx=0;entryDy=0;exitX=1;exitY=0.5;exitDx=0;exitDy=0;" parent="WIyWlLk6GJQsqaUBKTNV-1" source="cPJrFpIsc6c82qLKrWnZ-28" target="cPJrFpIsc6c82qLKrWnZ-73" edge="1">
          <mxGeometry width="50" height="50" relative="1" as="geometry">
            <mxPoint x="740" y="625.5" as="sourcePoint" />
            <mxPoint x="976" y="668.5" as="targetPoint" />
          </mxGeometry>
        </mxCell>
        <mxCell id="cPJrFpIsc6c82qLKrWnZ-75" value="&lt;p style=&quot;line-height: 100%;&quot;&gt;&lt;font style=&quot;font-size: 12px;&quot;&gt;&lt;u&gt;Inventario&lt;/u&gt;&lt;/font&gt;&lt;/p&gt;" style="ellipse;whiteSpace=wrap;html=1;noLabel=0;shadow=0;enumerate=0;treeFolding=0;snapToPoint=0;portConstraintRotation=0;" parent="WIyWlLk6GJQsqaUBKTNV-1" vertex="1">
          <mxGeometry x="844" y="509.5" width="65" height="36" as="geometry" />
        </mxCell>
        <mxCell id="cPJrFpIsc6c82qLKrWnZ-76" value="" style="endArrow=none;html=1;rounded=0;entryX=0.5;entryY=1;entryDx=0;entryDy=0;exitX=0;exitY=0;exitDx=0;exitDy=0;" parent="WIyWlLk6GJQsqaUBKTNV-1" source="cPJrFpIsc6c82qLKrWnZ-73" target="cPJrFpIsc6c82qLKrWnZ-75" edge="1">
          <mxGeometry width="50" height="50" relative="1" as="geometry">
            <mxPoint x="897.6978617776508" y="606.6737972499286" as="sourcePoint" />
            <mxPoint x="1151" y="639.5" as="targetPoint" />
          </mxGeometry>
        </mxCell>
        <mxCell id="cPJrFpIsc6c82qLKrWnZ-77" value="&lt;p style=&quot;line-height: 100%;&quot;&gt;&lt;font style=&quot;font-size: 12px;&quot;&gt;&lt;u&gt;Comune&lt;/u&gt;&lt;/font&gt;&lt;/p&gt;" style="ellipse;whiteSpace=wrap;html=1;noLabel=0;shadow=0;enumerate=0;treeFolding=0;snapToPoint=0;portConstraintRotation=0;" parent="WIyWlLk6GJQsqaUBKTNV-1" vertex="1">
          <mxGeometry x="934" y="512.5" width="65" height="36" as="geometry" />
        </mxCell>
        <mxCell id="cPJrFpIsc6c82qLKrWnZ-78" value="" style="endArrow=none;html=1;rounded=0;entryX=0.5;entryY=1;entryDx=0;entryDy=0;exitX=1;exitY=0;exitDx=0;exitDy=0;" parent="WIyWlLk6GJQsqaUBKTNV-1" source="cPJrFpIsc6c82qLKrWnZ-73" target="cPJrFpIsc6c82qLKrWnZ-77" edge="1">
          <mxGeometry width="50" height="50" relative="1" as="geometry">
            <mxPoint x="1005" y="599.5" as="sourcePoint" />
            <mxPoint x="1241" y="642.5" as="targetPoint" />
          </mxGeometry>
        </mxCell>
        <mxCell id="cPJrFpIsc6c82qLKrWnZ-79" value="&lt;p style=&quot;line-height: 100%;&quot;&gt;&lt;font style=&quot;font-size: 12px;&quot;&gt;&lt;u&gt;ID_copia&lt;/u&gt;&lt;/font&gt;&lt;/p&gt;" style="ellipse;whiteSpace=wrap;html=1;noLabel=0;shadow=0;enumerate=0;treeFolding=0;snapToPoint=0;portConstraintRotation=0;" parent="WIyWlLk6GJQsqaUBKTNV-1" vertex="1">
          <mxGeometry x="1302" y="647.5" width="65" height="36" as="geometry" />
        </mxCell>
        <mxCell id="cPJrFpIsc6c82qLKrWnZ-80" value="" style="endArrow=none;html=1;rounded=0;entryX=0;entryY=1;entryDx=0;entryDy=0;exitX=0.75;exitY=0;exitDx=0;exitDy=0;" parent="WIyWlLk6GJQsqaUBKTNV-1" source="cPJrFpIsc6c82qLKrWnZ-25" target="cPJrFpIsc6c82qLKrWnZ-79" edge="1">
          <mxGeometry width="50" height="50" relative="1" as="geometry">
            <mxPoint x="1233" y="756" as="sourcePoint" />
            <mxPoint x="1415.5" y="731.0000000000005" as="targetPoint" />
          </mxGeometry>
        </mxCell>
        <mxCell id="cPJrFpIsc6c82qLKrWnZ-81" value="&lt;p style=&quot;line-height: 100%;&quot;&gt;&lt;font style=&quot;font-size: 12px;&quot;&gt;&lt;u&gt;Inventario&lt;/u&gt;&lt;/font&gt;&lt;/p&gt;" style="ellipse;whiteSpace=wrap;html=1;noLabel=0;shadow=0;enumerate=0;treeFolding=0;snapToPoint=0;portConstraintRotation=0;" parent="WIyWlLk6GJQsqaUBKTNV-1" vertex="1">
          <mxGeometry x="1302" y="597" width="65" height="36" as="geometry" />
        </mxCell>
        <mxCell id="cPJrFpIsc6c82qLKrWnZ-82" value="" style="endArrow=none;html=1;rounded=0;entryX=0.5;entryY=1;entryDx=0;entryDy=0;exitX=0;exitY=0;exitDx=0;exitDy=0;" parent="WIyWlLk6GJQsqaUBKTNV-1" source="cPJrFpIsc6c82qLKrWnZ-79" target="cPJrFpIsc6c82qLKrWnZ-81" edge="1">
          <mxGeometry width="50" height="50" relative="1" as="geometry">
            <mxPoint x="1355.6978617776508" y="694.1737972499286" as="sourcePoint" />
            <mxPoint x="1609" y="727" as="targetPoint" />
          </mxGeometry>
        </mxCell>
        <mxCell id="cPJrFpIsc6c82qLKrWnZ-83" value="&lt;p style=&quot;line-height: 100%;&quot;&gt;&lt;font style=&quot;font-size: 12px;&quot;&gt;&lt;u&gt;Comune&lt;/u&gt;&lt;/font&gt;&lt;/p&gt;" style="ellipse;whiteSpace=wrap;html=1;noLabel=0;shadow=0;enumerate=0;treeFolding=0;snapToPoint=0;portConstraintRotation=0;" parent="WIyWlLk6GJQsqaUBKTNV-1" vertex="1">
          <mxGeometry x="1392" y="600" width="65" height="36" as="geometry" />
        </mxCell>
        <mxCell id="cPJrFpIsc6c82qLKrWnZ-84" value="" style="endArrow=none;html=1;rounded=0;entryX=0.5;entryY=1;entryDx=0;entryDy=0;exitX=1;exitY=0;exitDx=0;exitDy=0;" parent="WIyWlLk6GJQsqaUBKTNV-1" source="cPJrFpIsc6c82qLKrWnZ-79" target="cPJrFpIsc6c82qLKrWnZ-83" edge="1">
          <mxGeometry width="50" height="50" relative="1" as="geometry">
            <mxPoint x="1463" y="687" as="sourcePoint" />
            <mxPoint x="1699" y="730" as="targetPoint" />
          </mxGeometry>
        </mxCell>
        <mxCell id="cPJrFpIsc6c82qLKrWnZ-87" value="" style="endArrow=none;html=1;rounded=0;entryX=1;entryY=1;entryDx=0;entryDy=0;exitX=0;exitY=0.5;exitDx=0;exitDy=0;" parent="WIyWlLk6GJQsqaUBKTNV-1" source="cPJrFpIsc6c82qLKrWnZ-16" target="cPJrFpIsc6c82qLKrWnZ-5" edge="1">
          <mxGeometry width="50" height="50" relative="1" as="geometry">
            <mxPoint x="624" y="55" as="sourcePoint" />
            <mxPoint x="674" y="5" as="targetPoint" />
          </mxGeometry>
        </mxCell>
        <mxCell id="cPJrFpIsc6c82qLKrWnZ-89" value="&lt;font style=&quot;font-size: 12px;&quot;&gt;OSPITA&lt;/font&gt;" style="rhombus;whiteSpace=wrap;html=1;shadow=0;rounded=0;perimeterSpacing=0;strokeWidth=1;fillColor=#f5f5f5;fontColor=#333333;strokeColor=#666666;fillStyle=auto;double=0;" parent="WIyWlLk6GJQsqaUBKTNV-1" vertex="1">
          <mxGeometry x="748" y="56.5" width="84" height="59" as="geometry" />
        </mxCell>
        <mxCell id="cPJrFpIsc6c82qLKrWnZ-90" value="" style="endArrow=none;html=1;rounded=0;exitX=0.5;exitY=0;exitDx=0;exitDy=0;entryX=0.5;entryY=1;entryDx=0;entryDy=0;" parent="WIyWlLk6GJQsqaUBKTNV-1" source="cPJrFpIsc6c82qLKrWnZ-4" target="cPJrFpIsc6c82qLKrWnZ-89" edge="1">
          <mxGeometry width="50" height="50" relative="1" as="geometry">
            <mxPoint x="921.5" y="245" as="sourcePoint" />
            <mxPoint x="849.5" y="64" as="targetPoint" />
          </mxGeometry>
        </mxCell>
        <mxCell id="cPJrFpIsc6c82qLKrWnZ-91" value="" style="endArrow=none;html=1;rounded=0;entryX=0.5;entryY=1;entryDx=0;entryDy=0;exitX=0.5;exitY=0;exitDx=0;exitDy=0;" parent="WIyWlLk6GJQsqaUBKTNV-1" source="cPJrFpIsc6c82qLKrWnZ-89" target="cPJrFpIsc6c82qLKrWnZ-6" edge="1">
          <mxGeometry width="50" height="50" relative="1" as="geometry">
            <mxPoint x="799.5" y="114" as="sourcePoint" />
            <mxPoint x="882.5" y="-75" as="targetPoint" />
          </mxGeometry>
        </mxCell>
        <mxCell id="cPJrFpIsc6c82qLKrWnZ-92" value="&lt;font style=&quot;font-size: 12px;&quot;&gt;LAVORA A&lt;/font&gt;" style="rhombus;whiteSpace=wrap;html=1;shadow=0;rounded=0;perimeterSpacing=0;strokeWidth=1;fillColor=#f5f5f5;fontColor=#333333;strokeColor=#666666;fillStyle=auto;double=0;" parent="WIyWlLk6GJQsqaUBKTNV-1" vertex="1">
          <mxGeometry x="639" y="-3" width="84" height="59" as="geometry" />
        </mxCell>
        <mxCell id="cPJrFpIsc6c82qLKrWnZ-93" value="" style="endArrow=none;html=1;rounded=0;exitX=0.355;exitY=0.048;exitDx=0;exitDy=0;entryX=0.5;entryY=1;entryDx=0;entryDy=0;exitPerimeter=0;" parent="WIyWlLk6GJQsqaUBKTNV-1" source="cPJrFpIsc6c82qLKrWnZ-4" target="cPJrFpIsc6c82qLKrWnZ-92" edge="1">
          <mxGeometry width="50" height="50" relative="1" as="geometry">
            <mxPoint x="752" y="282" as="sourcePoint" />
            <mxPoint x="680" y="101" as="targetPoint" />
          </mxGeometry>
        </mxCell>
        <mxCell id="cPJrFpIsc6c82qLKrWnZ-94" value="" style="endArrow=none;html=1;rounded=0;entryX=0.5;entryY=1;entryDx=0;entryDy=0;exitX=0.5;exitY=0;exitDx=0;exitDy=0;" parent="WIyWlLk6GJQsqaUBKTNV-1" source="cPJrFpIsc6c82qLKrWnZ-92" target="cPJrFpIsc6c82qLKrWnZ-16" edge="1">
          <mxGeometry width="50" height="50" relative="1" as="geometry">
            <mxPoint x="630" y="151" as="sourcePoint" />
            <mxPoint x="713" y="-38" as="targetPoint" />
          </mxGeometry>
        </mxCell>
        <mxCell id="cPJrFpIsc6c82qLKrWnZ-95" value="&lt;font style=&quot;font-size: 12px;&quot;&gt;REGISTRATO A&lt;/font&gt;" style="rhombus;whiteSpace=wrap;html=1;shadow=0;rounded=0;perimeterSpacing=0;strokeWidth=1;fillColor=#f5f5f5;fontColor=#333333;strokeColor=#666666;fillStyle=auto;double=0;" parent="WIyWlLk6GJQsqaUBKTNV-1" vertex="1">
          <mxGeometry x="463" y="-111" width="131" height="59" as="geometry" />
        </mxCell>
        <mxCell id="cPJrFpIsc6c82qLKrWnZ-96" value="" style="endArrow=none;html=1;rounded=0;exitX=0.25;exitY=0;exitDx=0;exitDy=0;entryX=0.5;entryY=1;entryDx=0;entryDy=0;" parent="WIyWlLk6GJQsqaUBKTNV-1" source="cPJrFpIsc6c82qLKrWnZ-4" target="cPJrFpIsc6c82qLKrWnZ-95" edge="1">
          <mxGeometry width="50" height="50" relative="1" as="geometry">
            <mxPoint x="583.5" y="339" as="sourcePoint" />
            <mxPoint x="511.5" y="158" as="targetPoint" />
          </mxGeometry>
        </mxCell>
        <mxCell id="cPJrFpIsc6c82qLKrWnZ-97" value="" style="endArrow=none;html=1;rounded=0;exitX=0.5;exitY=0;exitDx=0;exitDy=0;" parent="WIyWlLk6GJQsqaUBKTNV-1" source="cPJrFpIsc6c82qLKrWnZ-95" target="cPJrFpIsc6c82qLKrWnZ-5" edge="1">
          <mxGeometry width="50" height="50" relative="1" as="geometry">
            <mxPoint x="461.5" y="208" as="sourcePoint" />
            <mxPoint x="359" y="50" as="targetPoint" />
          </mxGeometry>
        </mxCell>
        <mxCell id="cPJrFpIsc6c82qLKrWnZ-101" value="&lt;p style=&quot;line-height: 100%;&quot;&gt;&lt;font style=&quot;font-size: 12px;&quot;&gt;Indirizzo&lt;/font&gt;&lt;/p&gt;" style="ellipse;whiteSpace=wrap;html=1;" parent="WIyWlLk6GJQsqaUBKTNV-1" vertex="1">
          <mxGeometry x="931" y="201" width="78" height="36" as="geometry" />
        </mxCell>
        <mxCell id="cPJrFpIsc6c82qLKrWnZ-102" value="" style="endArrow=none;html=1;rounded=0;entryX=0;entryY=0.5;entryDx=0;entryDy=0;exitX=1;exitY=0;exitDx=0;exitDy=0;" parent="WIyWlLk6GJQsqaUBKTNV-1" source="cPJrFpIsc6c82qLKrWnZ-4" target="cPJrFpIsc6c82qLKrWnZ-101" edge="1">
          <mxGeometry width="50" height="50" relative="1" as="geometry">
            <mxPoint x="771" y="222" as="sourcePoint" />
            <mxPoint x="1204" y="304" as="targetPoint" />
          </mxGeometry>
        </mxCell>
        <mxCell id="cPJrFpIsc6c82qLKrWnZ-103" value="&lt;p style=&quot;line-height: 100%;&quot;&gt;&lt;font style=&quot;font-size: 12px;&quot;&gt;Tipo&lt;/font&gt;&lt;/p&gt;" style="ellipse;whiteSpace=wrap;html=1;" parent="WIyWlLk6GJQsqaUBKTNV-1" vertex="1">
          <mxGeometry x="472" y="878" width="51" height="36" as="geometry" />
        </mxCell>
        <mxCell id="cPJrFpIsc6c82qLKrWnZ-104" value="" style="endArrow=none;html=1;rounded=0;exitX=0.5;exitY=0;exitDx=0;exitDy=0;entryX=0.75;entryY=1;entryDx=0;entryDy=0;" parent="WIyWlLk6GJQsqaUBKTNV-1" source="cPJrFpIsc6c82qLKrWnZ-103" target="cPJrFpIsc6c82qLKrWnZ-9" edge="1">
          <mxGeometry width="50" height="50" relative="1" as="geometry">
            <mxPoint x="481" y="829" as="sourcePoint" />
            <mxPoint x="508" y="836" as="targetPoint" />
          </mxGeometry>
        </mxCell>
        <mxCell id="cPJrFpIsc6c82qLKrWnZ-105" value="&lt;p style=&quot;line-height: 100%;&quot;&gt;&lt;font style=&quot;font-size: 12px;&quot;&gt;Autore&lt;/font&gt;&lt;/p&gt;" style="ellipse;whiteSpace=wrap;html=1;" parent="WIyWlLk6GJQsqaUBKTNV-1" vertex="1">
          <mxGeometry x="1196" y="1064" width="65" height="36" as="geometry" />
        </mxCell>
        <mxCell id="cPJrFpIsc6c82qLKrWnZ-106" value="" style="endArrow=none;html=1;rounded=0;exitX=0.5;exitY=0;exitDx=0;exitDy=0;entryX=0.112;entryY=1.005;entryDx=0;entryDy=0;entryPerimeter=0;" parent="WIyWlLk6GJQsqaUBKTNV-1" source="cPJrFpIsc6c82qLKrWnZ-105" target="cPJrFpIsc6c82qLKrWnZ-8" edge="1">
          <mxGeometry width="50" height="50" relative="1" as="geometry">
            <mxPoint x="1170.5" y="957" as="sourcePoint" />
            <mxPoint x="1194" y="949" as="targetPoint" />
          </mxGeometry>
        </mxCell>
        <mxCell id="cPJrFpIsc6c82qLKrWnZ-107" value="&lt;p style=&quot;line-height: 100%;&quot;&gt;&lt;font style=&quot;font-size: 12px;&quot;&gt;Cod_genere&lt;/font&gt;&lt;/p&gt;" style="ellipse;whiteSpace=wrap;html=1;" parent="WIyWlLk6GJQsqaUBKTNV-1" vertex="1">
          <mxGeometry x="1401" y="993" width="78" height="36" as="geometry" />
        </mxCell>
        <mxCell id="cPJrFpIsc6c82qLKrWnZ-108" value="" style="endArrow=none;html=1;rounded=0;exitX=0;exitY=0.5;exitDx=0;exitDy=0;entryX=1;entryY=0.75;entryDx=0;entryDy=0;" parent="WIyWlLk6GJQsqaUBKTNV-1" source="cPJrFpIsc6c82qLKrWnZ-107" target="cPJrFpIsc6c82qLKrWnZ-8" edge="1">
          <mxGeometry width="50" height="50" relative="1" as="geometry">
            <mxPoint x="1399" y="951" as="sourcePoint" />
            <mxPoint x="1368" y="960" as="targetPoint" />
          </mxGeometry>
        </mxCell>
        <mxCell id="cPJrFpIsc6c82qLKrWnZ-109" value="&lt;p style=&quot;line-height: 100%;&quot;&gt;&lt;font style=&quot;font-size: 12px;&quot;&gt;&lt;u&gt;Cod_fiscale&lt;/u&gt;&lt;/font&gt;&lt;/p&gt;" style="ellipse;whiteSpace=wrap;html=1;" parent="WIyWlLk6GJQsqaUBKTNV-1" vertex="1">
          <mxGeometry x="545" y="-362" width="76" height="36" as="geometry" />
        </mxCell>
        <mxCell id="cPJrFpIsc6c82qLKrWnZ-110" value="" style="endArrow=none;html=1;rounded=0;entryX=0;entryY=1;entryDx=0;entryDy=0;exitX=0.875;exitY=-0.025;exitDx=0;exitDy=0;exitPerimeter=0;" parent="WIyWlLk6GJQsqaUBKTNV-1" source="cPJrFpIsc6c82qLKrWnZ-5" target="cPJrFpIsc6c82qLKrWnZ-109" edge="1">
          <mxGeometry width="50" height="50" relative="1" as="geometry">
            <mxPoint x="472" y="-218" as="sourcePoint" />
            <mxPoint x="733.5" y="-187" as="targetPoint" />
          </mxGeometry>
        </mxCell>
        <mxCell id="cPJrFpIsc6c82qLKrWnZ-111" value="&lt;p style=&quot;line-height: 100%;&quot;&gt;&lt;font style=&quot;font-size: 12px;&quot;&gt;Nome&lt;/font&gt;&lt;/p&gt;" style="ellipse;whiteSpace=wrap;html=1;" parent="WIyWlLk6GJQsqaUBKTNV-1" vertex="1">
          <mxGeometry x="466" y="-367" width="65" height="36" as="geometry" />
        </mxCell>
        <mxCell id="cPJrFpIsc6c82qLKrWnZ-112" value="" style="endArrow=none;html=1;rounded=0;entryX=0.5;entryY=1;entryDx=0;entryDy=0;exitX=0.75;exitY=0;exitDx=0;exitDy=0;" parent="WIyWlLk6GJQsqaUBKTNV-1" source="cPJrFpIsc6c82qLKrWnZ-5" target="cPJrFpIsc6c82qLKrWnZ-111" edge="1">
          <mxGeometry width="50" height="50" relative="1" as="geometry">
            <mxPoint x="479" y="-200.9999999999999" as="sourcePoint" />
            <mxPoint x="656" y="-188" as="targetPoint" />
          </mxGeometry>
        </mxCell>
        <mxCell id="cPJrFpIsc6c82qLKrWnZ-113" value="&lt;p style=&quot;line-height: 100%;&quot;&gt;&lt;font style=&quot;font-size: 12px;&quot;&gt;Data_nascita&lt;/font&gt;&lt;/p&gt;" style="ellipse;whiteSpace=wrap;html=1;" parent="WIyWlLk6GJQsqaUBKTNV-1" vertex="1">
          <mxGeometry x="348" y="-539" width="85" height="36" as="geometry" />
        </mxCell>
        <mxCell id="cPJrFpIsc6c82qLKrWnZ-114" value="" style="endArrow=none;html=1;rounded=0;entryX=0.5;entryY=1;entryDx=0;entryDy=0;exitX=0.65;exitY=0.008;exitDx=0;exitDy=0;exitPerimeter=0;" parent="WIyWlLk6GJQsqaUBKTNV-1" source="cPJrFpIsc6c82qLKrWnZ-5" target="cPJrFpIsc6c82qLKrWnZ-113" edge="1">
          <mxGeometry width="50" height="50" relative="1" as="geometry">
            <mxPoint x="425.5" y="-210" as="sourcePoint" />
            <mxPoint x="574.5" y="-195" as="targetPoint" />
          </mxGeometry>
        </mxCell>
        <mxCell id="cPJrFpIsc6c82qLKrWnZ-115" value="&lt;p style=&quot;line-height: 100%;&quot;&gt;&lt;font style=&quot;font-size: 12px;&quot;&gt;Indirizzo&lt;/font&gt;&lt;/p&gt;" style="ellipse;whiteSpace=wrap;html=1;" parent="WIyWlLk6GJQsqaUBKTNV-1" vertex="1">
          <mxGeometry x="318" y="-326" width="65" height="36" as="geometry" />
        </mxCell>
        <mxCell id="cPJrFpIsc6c82qLKrWnZ-116" value="" style="endArrow=none;html=1;rounded=0;entryX=1;entryY=1;entryDx=0;entryDy=0;exitX=0.25;exitY=0;exitDx=0;exitDy=0;" parent="WIyWlLk6GJQsqaUBKTNV-1" source="cPJrFpIsc6c82qLKrWnZ-5" target="cPJrFpIsc6c82qLKrWnZ-115" edge="1">
          <mxGeometry width="50" height="50" relative="1" as="geometry">
            <mxPoint x="400" y="-202" as="sourcePoint" />
            <mxPoint x="549" y="-187" as="targetPoint" />
          </mxGeometry>
        </mxCell>
        <mxCell id="cPJrFpIsc6c82qLKrWnZ-117" value="&lt;p style=&quot;line-height: 100%;&quot;&gt;&lt;font style=&quot;font-size: 12px;&quot;&gt;Nome_batt&lt;/font&gt;&lt;/p&gt;" style="ellipse;whiteSpace=wrap;html=1;" parent="WIyWlLk6GJQsqaUBKTNV-1" vertex="1">
          <mxGeometry x="431.5" y="-453" width="70.5" height="36" as="geometry" />
        </mxCell>
        <mxCell id="cPJrFpIsc6c82qLKrWnZ-118" value="" style="endArrow=none;html=1;rounded=0;entryX=0.5;entryY=1;entryDx=0;entryDy=0;exitX=0;exitY=0;exitDx=0;exitDy=0;" parent="WIyWlLk6GJQsqaUBKTNV-1" source="cPJrFpIsc6c82qLKrWnZ-111" target="cPJrFpIsc6c82qLKrWnZ-117" edge="1">
          <mxGeometry width="50" height="50" relative="1" as="geometry">
            <mxPoint x="537" y="-345" as="sourcePoint" />
            <mxPoint x="686" y="-330" as="targetPoint" />
          </mxGeometry>
        </mxCell>
        <mxCell id="cPJrFpIsc6c82qLKrWnZ-119" value="&lt;p style=&quot;line-height: 100%;&quot;&gt;&lt;font style=&quot;font-size: 12px;&quot;&gt;Cognome&lt;/font&gt;&lt;/p&gt;" style="ellipse;whiteSpace=wrap;html=1;" parent="WIyWlLk6GJQsqaUBKTNV-1" vertex="1">
          <mxGeometry x="542" y="-448" width="65" height="36" as="geometry" />
        </mxCell>
        <mxCell id="cPJrFpIsc6c82qLKrWnZ-120" value="" style="endArrow=none;html=1;rounded=0;entryX=0.5;entryY=1;entryDx=0;entryDy=0;exitX=1;exitY=0;exitDx=0;exitDy=0;" parent="WIyWlLk6GJQsqaUBKTNV-1" source="cPJrFpIsc6c82qLKrWnZ-111" target="cPJrFpIsc6c82qLKrWnZ-119" edge="1">
          <mxGeometry width="50" height="50" relative="1" as="geometry">
            <mxPoint x="633.25" y="-349" as="sourcePoint" />
            <mxPoint x="782.25" y="-334" as="targetPoint" />
          </mxGeometry>
        </mxCell>
        <mxCell id="cPJrFpIsc6c82qLKrWnZ-121" value="&lt;p style=&quot;line-height: 100%;&quot;&gt;&lt;font style=&quot;font-size: 12px;&quot;&gt;CAP&lt;/font&gt;&lt;/p&gt;" style="ellipse;whiteSpace=wrap;html=1;" parent="WIyWlLk6GJQsqaUBKTNV-1" vertex="1">
          <mxGeometry x="283" y="-410" width="65" height="36" as="geometry" />
        </mxCell>
        <mxCell id="cPJrFpIsc6c82qLKrWnZ-122" value="" style="endArrow=none;html=1;rounded=0;entryX=0.5;entryY=1;entryDx=0;entryDy=0;" parent="WIyWlLk6GJQsqaUBKTNV-1" source="cPJrFpIsc6c82qLKrWnZ-115" target="cPJrFpIsc6c82qLKrWnZ-121" edge="1">
          <mxGeometry width="50" height="50" relative="1" as="geometry">
            <mxPoint x="403.25" y="-329" as="sourcePoint" />
            <mxPoint x="552.25" y="-314" as="targetPoint" />
          </mxGeometry>
        </mxCell>
        <mxCell id="cPJrFpIsc6c82qLKrWnZ-123" value="&lt;p style=&quot;line-height: 100%;&quot;&gt;&lt;font style=&quot;font-size: 12px;&quot;&gt;Domicilio&lt;/font&gt;&lt;/p&gt;" style="ellipse;whiteSpace=wrap;html=1;" parent="WIyWlLk6GJQsqaUBKTNV-1" vertex="1">
          <mxGeometry x="200" y="-384" width="65" height="36" as="geometry" />
        </mxCell>
        <mxCell id="cPJrFpIsc6c82qLKrWnZ-124" value="" style="endArrow=none;html=1;rounded=0;entryX=1;entryY=1;entryDx=0;entryDy=0;exitX=0;exitY=0;exitDx=0;exitDy=0;" parent="WIyWlLk6GJQsqaUBKTNV-1" source="cPJrFpIsc6c82qLKrWnZ-115" target="cPJrFpIsc6c82qLKrWnZ-123" edge="1">
          <mxGeometry width="50" height="50" relative="1" as="geometry">
            <mxPoint x="337.00000000000136" y="-289.9999999999998" as="sourcePoint" />
            <mxPoint x="464.5" y="-267" as="targetPoint" />
          </mxGeometry>
        </mxCell>
        <mxCell id="cPJrFpIsc6c82qLKrWnZ-128" value="&lt;p style=&quot;line-height: 100%;&quot;&gt;N_telefono&lt;/p&gt;" style="ellipse;whiteSpace=wrap;html=1;" parent="WIyWlLk6GJQsqaUBKTNV-1" vertex="1">
          <mxGeometry x="232" y="-287" width="71" height="36" as="geometry" />
        </mxCell>
        <mxCell id="cPJrFpIsc6c82qLKrWnZ-129" value="" style="endArrow=none;html=1;rounded=0;entryX=1;entryY=0.5;entryDx=0;entryDy=0;exitX=0;exitY=0.25;exitDx=0;exitDy=0;" parent="WIyWlLk6GJQsqaUBKTNV-1" source="cPJrFpIsc6c82qLKrWnZ-5" target="cPJrFpIsc6c82qLKrWnZ-128" edge="1">
          <mxGeometry width="50" height="50" relative="1" as="geometry">
            <mxPoint x="340" y="-201.5" as="sourcePoint" />
            <mxPoint x="467" y="-135.5" as="targetPoint" />
          </mxGeometry>
        </mxCell>
        <mxCell id="cPJrFpIsc6c82qLKrWnZ-130" value="&lt;p style=&quot;line-height: 100%;&quot;&gt;&lt;font style=&quot;font-size: 12px;&quot;&gt;Email&lt;/font&gt;&lt;/p&gt;" style="ellipse;whiteSpace=wrap;html=1;" parent="WIyWlLk6GJQsqaUBKTNV-1" vertex="1">
          <mxGeometry x="246" y="-231" width="65" height="36" as="geometry" />
        </mxCell>
        <mxCell id="cPJrFpIsc6c82qLKrWnZ-131" value="" style="endArrow=none;html=1;rounded=0;entryX=1;entryY=0.5;entryDx=0;entryDy=0;exitX=0;exitY=0.75;exitDx=0;exitDy=0;" parent="WIyWlLk6GJQsqaUBKTNV-1" source="cPJrFpIsc6c82qLKrWnZ-5" target="cPJrFpIsc6c82qLKrWnZ-130" edge="1">
          <mxGeometry width="50" height="50" relative="1" as="geometry">
            <mxPoint x="354" y="-142" as="sourcePoint" />
            <mxPoint x="481" y="-76" as="targetPoint" />
          </mxGeometry>
        </mxCell>
        <mxCell id="cPJrFpIsc6c82qLKrWnZ-132" value="&lt;p style=&quot;line-height: 100%;&quot;&gt;Stato&lt;/p&gt;" style="ellipse;whiteSpace=wrap;html=1;" parent="WIyWlLk6GJQsqaUBKTNV-1" vertex="1">
          <mxGeometry x="1403" y="800" width="65" height="36" as="geometry" />
        </mxCell>
        <mxCell id="cPJrFpIsc6c82qLKrWnZ-133" value="" style="endArrow=none;html=1;rounded=0;exitX=0;exitY=0;exitDx=0;exitDy=0;entryX=1;entryY=1;entryDx=0;entryDy=0;" parent="WIyWlLk6GJQsqaUBKTNV-1" source="cPJrFpIsc6c82qLKrWnZ-132" target="cPJrFpIsc6c82qLKrWnZ-25" edge="1">
          <mxGeometry width="50" height="50" relative="1" as="geometry">
            <mxPoint x="1411.5" y="811" as="sourcePoint" />
            <mxPoint x="1317" y="759" as="targetPoint" />
          </mxGeometry>
        </mxCell>
        <mxCell id="cPJrFpIsc6c82qLKrWnZ-134" value="&lt;p style=&quot;line-height: 100%;&quot;&gt;Stato&lt;/p&gt;" style="ellipse;whiteSpace=wrap;html=1;" parent="WIyWlLk6GJQsqaUBKTNV-1" vertex="1">
          <mxGeometry x="905" y="674.5" width="65" height="36" as="geometry" />
        </mxCell>
        <mxCell id="cPJrFpIsc6c82qLKrWnZ-135" value="" style="endArrow=none;html=1;rounded=0;exitX=0.5;exitY=0;exitDx=0;exitDy=0;entryX=1;entryY=1;entryDx=0;entryDy=0;" parent="WIyWlLk6GJQsqaUBKTNV-1" source="cPJrFpIsc6c82qLKrWnZ-134" target="cPJrFpIsc6c82qLKrWnZ-28" edge="1">
          <mxGeometry width="50" height="50" relative="1" as="geometry">
            <mxPoint x="915" y="654" as="sourcePoint" />
            <mxPoint x="828" y="650.5" as="targetPoint" />
          </mxGeometry>
        </mxCell>
        <mxCell id="cPJrFpIsc6c82qLKrWnZ-136" value="&lt;p style=&quot;line-height: 100%;&quot;&gt;Stato&lt;/p&gt;" style="ellipse;whiteSpace=wrap;html=1;" parent="WIyWlLk6GJQsqaUBKTNV-1" vertex="1">
          <mxGeometry x="518" y="696" width="65" height="36" as="geometry" />
        </mxCell>
        <mxCell id="cPJrFpIsc6c82qLKrWnZ-137" value="" style="endArrow=none;html=1;rounded=0;exitX=0.5;exitY=0;exitDx=0;exitDy=0;entryX=1;entryY=1;entryDx=0;entryDy=0;" parent="WIyWlLk6GJQsqaUBKTNV-1" source="cPJrFpIsc6c82qLKrWnZ-136" target="cPJrFpIsc6c82qLKrWnZ-31" edge="1">
          <mxGeometry width="50" height="50" relative="1" as="geometry">
            <mxPoint x="578" y="655.5" as="sourcePoint" />
            <mxPoint x="538" y="657" as="targetPoint" />
          </mxGeometry>
        </mxCell>
        <mxCell id="kuhGH8qiXDGs2xV2Qm3V-5" value="PRENDE IN PRESTITO" style="rhombus;whiteSpace=wrap;html=1;shadow=0;rounded=0;perimeterSpacing=0;strokeWidth=1;fillColor=#f5f5f5;fontColor=#333333;strokeColor=#666666;fillStyle=auto;double=0;" parent="WIyWlLk6GJQsqaUBKTNV-1" vertex="1">
          <mxGeometry x="361.75" y="161" width="109.5" height="72" as="geometry" />
        </mxCell>
        <mxCell id="kuhGH8qiXDGs2xV2Qm3V-6" value="" style="endArrow=none;html=1;rounded=0;exitX=0.5;exitY=0;exitDx=0;exitDy=0;entryX=0.25;entryY=1;entryDx=0;entryDy=0;" parent="WIyWlLk6GJQsqaUBKTNV-1" source="kuhGH8qiXDGs2xV2Qm3V-5" target="cPJrFpIsc6c82qLKrWnZ-5" edge="1">
          <mxGeometry width="50" height="50" relative="1" as="geometry">
            <mxPoint x="250.5" y="292" as="sourcePoint" />
            <mxPoint x="252" y="-122" as="targetPoint" />
          </mxGeometry>
        </mxCell>
        <mxCell id="kuhGH8qiXDGs2xV2Qm3V-7" value="" style="endArrow=none;html=1;rounded=0;entryX=0.5;entryY=1;entryDx=0;entryDy=0;exitX=0.25;exitY=0;exitDx=0;exitDy=0;" parent="WIyWlLk6GJQsqaUBKTNV-1" source="cPJrFpIsc6c82qLKrWnZ-31" target="kuhGH8qiXDGs2xV2Qm3V-5" edge="1">
          <mxGeometry width="50" height="50" relative="1" as="geometry">
            <mxPoint x="355" y="289" as="sourcePoint" />
            <mxPoint x="405" y="239" as="targetPoint" />
          </mxGeometry>
        </mxCell>
        <mxCell id="kuhGH8qiXDGs2xV2Qm3V-9" value="&lt;font style=&quot;font-size: 12px;&quot;&gt;PRENDE IN PRESTITO&lt;/font&gt;" style="rhombus;whiteSpace=wrap;html=1;shadow=0;rounded=0;perimeterSpacing=0;strokeWidth=1;fillColor=#f5f5f5;fontColor=#333333;strokeColor=#666666;fillStyle=auto;double=0;" parent="WIyWlLk6GJQsqaUBKTNV-1" vertex="1">
          <mxGeometry x="-200" y="246" width="105" height="92.5" as="geometry" />
        </mxCell>
        <mxCell id="kuhGH8qiXDGs2xV2Qm3V-10" value="" style="endArrow=none;html=1;rounded=0;exitX=0.5;exitY=0;exitDx=0;exitDy=0;entryX=0;entryY=1;entryDx=0;entryDy=0;" parent="WIyWlLk6GJQsqaUBKTNV-1" source="kuhGH8qiXDGs2xV2Qm3V-9" target="cPJrFpIsc6c82qLKrWnZ-5" edge="1">
          <mxGeometry width="50" height="50" relative="1" as="geometry">
            <mxPoint x="125.5" y="256" as="sourcePoint" />
            <mxPoint x="121" y="-175" as="targetPoint" />
          </mxGeometry>
        </mxCell>
        <mxCell id="kuhGH8qiXDGs2xV2Qm3V-12" value="&lt;font style=&quot;font-size: 12px;&quot;&gt;PRENDE IN PRESTITO&lt;/font&gt;" style="rhombus;whiteSpace=wrap;html=1;shadow=0;rounded=0;perimeterSpacing=0;strokeWidth=1;fillColor=#f5f5f5;fontColor=#333333;strokeColor=#666666;fillStyle=auto;double=0;" parent="WIyWlLk6GJQsqaUBKTNV-1" vertex="1">
          <mxGeometry x="81" y="343" width="116" height="81" as="geometry" />
        </mxCell>
        <mxCell id="kuhGH8qiXDGs2xV2Qm3V-13" value="" style="endArrow=none;html=1;rounded=0;exitX=0.5;exitY=0;exitDx=0;exitDy=0;entryX=0.117;entryY=1;entryDx=0;entryDy=0;entryPerimeter=0;" parent="WIyWlLk6GJQsqaUBKTNV-1" source="kuhGH8qiXDGs2xV2Qm3V-12" target="cPJrFpIsc6c82qLKrWnZ-5" edge="1">
          <mxGeometry width="50" height="50" relative="1" as="geometry">
            <mxPoint x="148.5" y="504" as="sourcePoint" />
            <mxPoint x="144" y="73" as="targetPoint" />
          </mxGeometry>
        </mxCell>
        <mxCell id="kuhGH8qiXDGs2xV2Qm3V-14" value="" style="endArrow=none;html=1;rounded=0;edgeStyle=elbowEdgeStyle;elbow=vertical;exitX=0.25;exitY=1;exitDx=0;exitDy=0;" parent="WIyWlLk6GJQsqaUBKTNV-1" source="cPJrFpIsc6c82qLKrWnZ-28" target="kuhGH8qiXDGs2xV2Qm3V-12" edge="1">
          <mxGeometry width="50" height="50" relative="1" as="geometry">
            <mxPoint x="696" y="742" as="sourcePoint" />
            <mxPoint x="280" y="397" as="targetPoint" />
            <Array as="points">
              <mxPoint x="348.5" y="962" />
            </Array>
          </mxGeometry>
        </mxCell>
        <mxCell id="kuhGH8qiXDGs2xV2Qm3V-15" value="" style="endArrow=none;html=1;rounded=0;entryX=0.5;entryY=1;entryDx=0;entryDy=0;edgeStyle=elbowEdgeStyle;elbow=vertical;exitX=0.111;exitY=1.021;exitDx=0;exitDy=0;exitPerimeter=0;" parent="WIyWlLk6GJQsqaUBKTNV-1" source="cPJrFpIsc6c82qLKrWnZ-25" target="kuhGH8qiXDGs2xV2Qm3V-9" edge="1">
          <mxGeometry width="50" height="50" relative="1" as="geometry">
            <mxPoint x="981.75" y="976.5" as="sourcePoint" />
            <mxPoint x="88.25000000000023" y="731.9999999999995" as="targetPoint" />
            <Array as="points">
              <mxPoint x="545" y="1030" />
            </Array>
          </mxGeometry>
        </mxCell>
        <mxCell id="PWOkXNn3tWUI3Z43XTmZ-1" value="OSPITA" style="rhombus;whiteSpace=wrap;html=1;shadow=0;rounded=0;perimeterSpacing=0;strokeWidth=1;fillColor=#f5f5f5;fontColor=#333333;strokeColor=#666666;fillStyle=auto;double=0;" parent="WIyWlLk6GJQsqaUBKTNV-1" vertex="1">
          <mxGeometry x="434.75" y="289" width="84.25" height="61" as="geometry" />
        </mxCell>
        <mxCell id="PWOkXNn3tWUI3Z43XTmZ-2" value="" style="endArrow=none;html=1;rounded=0;exitX=0.338;exitY=-0.033;exitDx=0;exitDy=0;entryX=0.5;entryY=1;entryDx=0;entryDy=0;exitPerimeter=0;" parent="WIyWlLk6GJQsqaUBKTNV-1" source="cPJrFpIsc6c82qLKrWnZ-31" target="PWOkXNn3tWUI3Z43XTmZ-1" edge="1">
          <mxGeometry width="50" height="50" relative="1" as="geometry">
            <mxPoint x="476" y="522" as="sourcePoint" />
            <mxPoint x="420" y="340" as="targetPoint" />
          </mxGeometry>
        </mxCell>
        <mxCell id="PWOkXNn3tWUI3Z43XTmZ-3" value="" style="endArrow=none;html=1;rounded=0;exitX=1;exitY=0.5;exitDx=0;exitDy=0;entryX=0;entryY=0.25;entryDx=0;entryDy=0;" parent="WIyWlLk6GJQsqaUBKTNV-1" source="PWOkXNn3tWUI3Z43XTmZ-1" target="cPJrFpIsc6c82qLKrWnZ-4" edge="1">
          <mxGeometry width="50" height="50" relative="1" as="geometry">
            <mxPoint x="370" y="390" as="sourcePoint" />
            <mxPoint x="512" y="244" as="targetPoint" />
          </mxGeometry>
        </mxCell>
        <mxCell id="PWOkXNn3tWUI3Z43XTmZ-4" value="OSPITA" style="rhombus;whiteSpace=wrap;html=1;shadow=0;rounded=0;perimeterSpacing=0;strokeWidth=1;fillColor=#f5f5f5;fontColor=#333333;strokeColor=#666666;fillStyle=auto;double=0;" parent="WIyWlLk6GJQsqaUBKTNV-1" vertex="1">
          <mxGeometry x="694" y="372.5" width="91" height="49" as="geometry" />
        </mxCell>
        <mxCell id="PWOkXNn3tWUI3Z43XTmZ-5" value="" style="endArrow=none;html=1;rounded=0;exitX=0.25;exitY=0;exitDx=0;exitDy=0;entryX=0.5;entryY=1;entryDx=0;entryDy=0;" parent="WIyWlLk6GJQsqaUBKTNV-1" source="cPJrFpIsc6c82qLKrWnZ-28" target="PWOkXNn3tWUI3Z43XTmZ-4" edge="1">
          <mxGeometry width="50" height="50" relative="1" as="geometry">
            <mxPoint x="809" y="637.5" as="sourcePoint" />
            <mxPoint x="753" y="455.5" as="targetPoint" />
          </mxGeometry>
        </mxCell>
        <mxCell id="PWOkXNn3tWUI3Z43XTmZ-6" value="" style="endArrow=none;html=1;rounded=0;entryX=0.389;entryY=0.962;entryDx=0;entryDy=0;exitX=0.5;exitY=0;exitDx=0;exitDy=0;entryPerimeter=0;" parent="WIyWlLk6GJQsqaUBKTNV-1" source="PWOkXNn3tWUI3Z43XTmZ-4" target="cPJrFpIsc6c82qLKrWnZ-4" edge="1">
          <mxGeometry width="50" height="50" relative="1" as="geometry">
            <mxPoint x="654" y="486" as="sourcePoint" />
            <mxPoint x="783" y="303" as="targetPoint" />
          </mxGeometry>
        </mxCell>
        <mxCell id="PWOkXNn3tWUI3Z43XTmZ-7" value="OSPITA" style="rhombus;whiteSpace=wrap;html=1;shadow=0;rounded=0;perimeterSpacing=0;strokeWidth=1;fillColor=#f5f5f5;fontColor=#333333;strokeColor=#666666;fillStyle=auto;double=0;" parent="WIyWlLk6GJQsqaUBKTNV-1" vertex="1">
          <mxGeometry x="1094" y="534.5" width="89" height="60" as="geometry" />
        </mxCell>
        <mxCell id="PWOkXNn3tWUI3Z43XTmZ-8" value="" style="endArrow=none;html=1;rounded=0;exitX=0.25;exitY=0;exitDx=0;exitDy=0;entryX=0.5;entryY=1;entryDx=0;entryDy=0;" parent="WIyWlLk6GJQsqaUBKTNV-1" source="cPJrFpIsc6c82qLKrWnZ-25" target="PWOkXNn3tWUI3Z43XTmZ-7" edge="1">
          <mxGeometry width="50" height="50" relative="1" as="geometry">
            <mxPoint x="1077" y="717" as="sourcePoint" />
            <mxPoint x="1021" y="535" as="targetPoint" />
          </mxGeometry>
        </mxCell>
        <mxCell id="PWOkXNn3tWUI3Z43XTmZ-9" value="" style="endArrow=none;html=1;rounded=0;exitX=0.5;exitY=0;exitDx=0;exitDy=0;entryX=0.589;entryY=0.962;entryDx=0;entryDy=0;entryPerimeter=0;" parent="WIyWlLk6GJQsqaUBKTNV-1" source="PWOkXNn3tWUI3Z43XTmZ-7" target="cPJrFpIsc6c82qLKrWnZ-4" edge="1">
          <mxGeometry width="50" height="50" relative="1" as="geometry">
            <mxPoint x="793" y="443" as="sourcePoint" />
            <mxPoint x="922" y="260" as="targetPoint" />
          </mxGeometry>
        </mxCell>
        <mxCell id="PWOkXNn3tWUI3Z43XTmZ-10" value="&lt;p style=&quot;line-height: 100%;&quot;&gt;&lt;font style=&quot;font-size: 12px;&quot;&gt;&lt;u&gt;Username&lt;/u&gt;&lt;/font&gt;&lt;/p&gt;" style="ellipse;whiteSpace=wrap;html=1;" parent="WIyWlLk6GJQsqaUBKTNV-1" vertex="1">
          <mxGeometry x="565" y="-315" width="76" height="36" as="geometry" />
        </mxCell>
        <mxCell id="PWOkXNn3tWUI3Z43XTmZ-11" value="" style="endArrow=none;html=1;rounded=0;entryX=0;entryY=1;entryDx=0;entryDy=0;exitX=1;exitY=0;exitDx=0;exitDy=0;" parent="WIyWlLk6GJQsqaUBKTNV-1" source="cPJrFpIsc6c82qLKrWnZ-5" target="PWOkXNn3tWUI3Z43XTmZ-10" edge="1">
          <mxGeometry width="50" height="50" relative="1" as="geometry">
            <mxPoint x="507" y="-244" as="sourcePoint" />
            <mxPoint x="743.5" y="-177" as="targetPoint" />
          </mxGeometry>
        </mxCell>
        <mxCell id="PWOkXNn3tWUI3Z43XTmZ-12" value="&lt;p style=&quot;line-height: 100%;&quot;&gt;&lt;font style=&quot;font-size: 12px;&quot;&gt;Password&lt;/font&gt;&lt;/p&gt;" style="ellipse;whiteSpace=wrap;html=1;" parent="WIyWlLk6GJQsqaUBKTNV-1" vertex="1">
          <mxGeometry x="594" y="-259" width="76" height="36" as="geometry" />
        </mxCell>
        <mxCell id="PWOkXNn3tWUI3Z43XTmZ-13" value="" style="endArrow=none;html=1;rounded=0;entryX=0;entryY=1;entryDx=0;entryDy=0;exitX=1;exitY=0.25;exitDx=0;exitDy=0;" parent="WIyWlLk6GJQsqaUBKTNV-1" source="cPJrFpIsc6c82qLKrWnZ-5" target="PWOkXNn3tWUI3Z43XTmZ-12" edge="1">
          <mxGeometry width="50" height="50" relative="1" as="geometry">
            <mxPoint x="659" y="-248" as="sourcePoint" />
            <mxPoint x="895.5" y="-181" as="targetPoint" />
          </mxGeometry>
        </mxCell>
        <mxCell id="mCI2MxX1cyDvArZYnoPV-0" value="&lt;p style=&quot;line-height: 100%;&quot;&gt;&lt;font style=&quot;font-size: 12px;&quot;&gt;Luogo_nascita&lt;/font&gt;&lt;/p&gt;" style="ellipse;whiteSpace=wrap;html=1;" vertex="1" parent="WIyWlLk6GJQsqaUBKTNV-1">
          <mxGeometry x="280" y="-480" width="90" height="41" as="geometry" />
        </mxCell>
        <mxCell id="mCI2MxX1cyDvArZYnoPV-1" value="" style="endArrow=none;html=1;rounded=0;entryX=1;entryY=1;entryDx=0;entryDy=0;exitX=0.342;exitY=0;exitDx=0;exitDy=0;exitPerimeter=0;" edge="1" parent="WIyWlLk6GJQsqaUBKTNV-1" target="mCI2MxX1cyDvArZYnoPV-0" source="cPJrFpIsc6c82qLKrWnZ-5">
          <mxGeometry width="50" height="50" relative="1" as="geometry">
            <mxPoint x="449" y="-301" as="sourcePoint" />
            <mxPoint x="585.5" y="-247" as="targetPoint" />
          </mxGeometry>
        </mxCell>
        <mxCell id="mCI2MxX1cyDvArZYnoPV-2" value="&lt;p style=&quot;line-height: 100%;&quot;&gt;Data_inizio_prestito&lt;/p&gt;" style="ellipse;whiteSpace=wrap;html=1;" vertex="1" parent="WIyWlLk6GJQsqaUBKTNV-1">
          <mxGeometry x="458" y="67" width="120" height="38" as="geometry" />
        </mxCell>
        <mxCell id="mCI2MxX1cyDvArZYnoPV-3" value="" style="endArrow=none;html=1;rounded=0;entryX=0;entryY=1;entryDx=0;entryDy=0;" edge="1" parent="WIyWlLk6GJQsqaUBKTNV-1" target="mCI2MxX1cyDvArZYnoPV-2" source="kuhGH8qiXDGs2xV2Qm3V-5">
          <mxGeometry width="50" height="50" relative="1" as="geometry">
            <mxPoint x="586" y="130" as="sourcePoint" />
            <mxPoint x="722.5" y="184" as="targetPoint" />
          </mxGeometry>
        </mxCell>
        <mxCell id="mCI2MxX1cyDvArZYnoPV-4" value="&lt;p style=&quot;line-height: 100%;&quot;&gt;Data_restituzione&lt;/p&gt;" style="ellipse;whiteSpace=wrap;html=1;" vertex="1" parent="WIyWlLk6GJQsqaUBKTNV-1">
          <mxGeometry x="485" y="121" width="120" height="38" as="geometry" />
        </mxCell>
        <mxCell id="mCI2MxX1cyDvArZYnoPV-5" value="" style="endArrow=none;html=1;rounded=0;entryX=0;entryY=1;entryDx=0;entryDy=0;exitX=1;exitY=0;exitDx=0;exitDy=0;" edge="1" parent="WIyWlLk6GJQsqaUBKTNV-1" target="mCI2MxX1cyDvArZYnoPV-4" source="kuhGH8qiXDGs2xV2Qm3V-5">
          <mxGeometry width="50" height="50" relative="1" as="geometry">
            <mxPoint x="459" y="225" as="sourcePoint" />
            <mxPoint x="749.5" y="238" as="targetPoint" />
          </mxGeometry>
        </mxCell>
        <mxCell id="mCI2MxX1cyDvArZYnoPV-11" style="rounded=0;orthogonalLoop=1;jettySize=auto;html=1;exitX=0;exitY=0.5;exitDx=0;exitDy=0;entryX=1;entryY=0.5;entryDx=0;entryDy=0;endArrow=none;endFill=0;dashed=1;dashPattern=8 8;" edge="1" parent="WIyWlLk6GJQsqaUBKTNV-1" source="mCI2MxX1cyDvArZYnoPV-8" target="kuhGH8qiXDGs2xV2Qm3V-5">
          <mxGeometry relative="1" as="geometry" />
        </mxCell>
        <mxCell id="mCI2MxX1cyDvArZYnoPV-8" value="Data_scadenza_prestito" style="ellipse;whiteSpace=wrap;html=1;align=center;dashed=1;" vertex="1" parent="WIyWlLk6GJQsqaUBKTNV-1">
          <mxGeometry x="527.25" y="177" width="151.5" height="40" as="geometry" />
        </mxCell>
        <mxCell id="mCI2MxX1cyDvArZYnoPV-13" value="&lt;p style=&quot;line-height: 100%;&quot;&gt;Data_inizio_prestito&lt;/p&gt;" style="ellipse;whiteSpace=wrap;html=1;" vertex="1" parent="WIyWlLk6GJQsqaUBKTNV-1">
          <mxGeometry x="212.25" y="258" width="120" height="38" as="geometry" />
        </mxCell>
        <mxCell id="mCI2MxX1cyDvArZYnoPV-14" value="" style="endArrow=none;html=1;rounded=0;entryX=0;entryY=1;entryDx=0;entryDy=0;exitX=1;exitY=0;exitDx=0;exitDy=0;" edge="1" parent="WIyWlLk6GJQsqaUBKTNV-1" target="mCI2MxX1cyDvArZYnoPV-13" source="kuhGH8qiXDGs2xV2Qm3V-12">
          <mxGeometry width="50" height="50" relative="1" as="geometry">
            <mxPoint x="186.25" y="362" as="sourcePoint" />
            <mxPoint x="476.75" y="375" as="targetPoint" />
          </mxGeometry>
        </mxCell>
        <mxCell id="mCI2MxX1cyDvArZYnoPV-15" value="&lt;p style=&quot;line-height: 100%;&quot;&gt;Data_restituzione&lt;/p&gt;" style="ellipse;whiteSpace=wrap;html=1;" vertex="1" parent="WIyWlLk6GJQsqaUBKTNV-1">
          <mxGeometry x="260" y="350" width="120" height="38" as="geometry" />
        </mxCell>
        <mxCell id="mCI2MxX1cyDvArZYnoPV-16" value="" style="endArrow=none;html=1;rounded=0;entryX=0;entryY=0.5;entryDx=0;entryDy=0;exitX=1;exitY=0.5;exitDx=0;exitDy=0;" edge="1" parent="WIyWlLk6GJQsqaUBKTNV-1" target="mCI2MxX1cyDvArZYnoPV-15" source="kuhGH8qiXDGs2xV2Qm3V-12">
          <mxGeometry width="50" height="50" relative="1" as="geometry">
            <mxPoint x="198.25" y="370" as="sourcePoint" />
            <mxPoint x="503.75" y="429" as="targetPoint" />
          </mxGeometry>
        </mxCell>
        <mxCell id="mCI2MxX1cyDvArZYnoPV-17" style="rounded=0;orthogonalLoop=1;jettySize=auto;html=1;exitX=0;exitY=0.5;exitDx=0;exitDy=0;entryX=1;entryY=1;entryDx=0;entryDy=0;endArrow=none;endFill=0;dashed=1;dashPattern=8 8;" edge="1" parent="WIyWlLk6GJQsqaUBKTNV-1" source="mCI2MxX1cyDvArZYnoPV-18" target="kuhGH8qiXDGs2xV2Qm3V-12">
          <mxGeometry relative="1" as="geometry">
            <mxPoint x="225.25" y="388" as="targetPoint" />
          </mxGeometry>
        </mxCell>
        <mxCell id="mCI2MxX1cyDvArZYnoPV-18" value="Data_scadenza_prestito" style="ellipse;whiteSpace=wrap;html=1;align=center;dashed=1;" vertex="1" parent="WIyWlLk6GJQsqaUBKTNV-1">
          <mxGeometry x="239.75" y="432" width="151.5" height="40" as="geometry" />
        </mxCell>
        <mxCell id="mCI2MxX1cyDvArZYnoPV-19" value="&lt;p style=&quot;line-height: 100%;&quot;&gt;Data_inizio_prestito&lt;/p&gt;" style="ellipse;whiteSpace=wrap;html=1;" vertex="1" parent="WIyWlLk6GJQsqaUBKTNV-1">
          <mxGeometry x="-29" y="190" width="120" height="38" as="geometry" />
        </mxCell>
        <mxCell id="mCI2MxX1cyDvArZYnoPV-20" value="" style="endArrow=none;html=1;rounded=0;entryX=0;entryY=1;entryDx=0;entryDy=0;exitX=1;exitY=0;exitDx=0;exitDy=0;" edge="1" parent="WIyWlLk6GJQsqaUBKTNV-1" target="mCI2MxX1cyDvArZYnoPV-19" source="kuhGH8qiXDGs2xV2Qm3V-9">
          <mxGeometry width="50" height="50" relative="1" as="geometry">
            <mxPoint x="-95" y="275" as="sourcePoint" />
            <mxPoint x="213.75" y="287" as="targetPoint" />
          </mxGeometry>
        </mxCell>
        <mxCell id="mCI2MxX1cyDvArZYnoPV-21" value="&lt;p style=&quot;line-height: 100%;&quot;&gt;Data_restituzione&lt;/p&gt;" style="ellipse;whiteSpace=wrap;html=1;" vertex="1" parent="WIyWlLk6GJQsqaUBKTNV-1">
          <mxGeometry y="289" width="120" height="38" as="geometry" />
        </mxCell>
        <mxCell id="mCI2MxX1cyDvArZYnoPV-22" value="" style="endArrow=none;html=1;rounded=0;entryX=0;entryY=0.5;entryDx=0;entryDy=0;exitX=1;exitY=0.5;exitDx=0;exitDy=0;" edge="1" parent="WIyWlLk6GJQsqaUBKTNV-1" target="mCI2MxX1cyDvArZYnoPV-21" source="kuhGH8qiXDGs2xV2Qm3V-9">
          <mxGeometry width="50" height="50" relative="1" as="geometry">
            <mxPoint x="-66" y="296" as="sourcePoint" />
            <mxPoint x="240.75" y="341" as="targetPoint" />
          </mxGeometry>
        </mxCell>
        <mxCell id="mCI2MxX1cyDvArZYnoPV-23" style="rounded=0;orthogonalLoop=1;jettySize=auto;html=1;exitX=0;exitY=0.5;exitDx=0;exitDy=0;entryX=1;entryY=1;entryDx=0;entryDy=0;endArrow=none;endFill=0;dashed=1;dashPattern=8 8;" edge="1" parent="WIyWlLk6GJQsqaUBKTNV-1" source="mCI2MxX1cyDvArZYnoPV-24" target="kuhGH8qiXDGs2xV2Qm3V-9">
          <mxGeometry relative="1" as="geometry">
            <mxPoint x="-95" y="316" as="targetPoint" />
          </mxGeometry>
        </mxCell>
        <mxCell id="mCI2MxX1cyDvArZYnoPV-24" value="Data_scadenza_prestito" style="ellipse;whiteSpace=wrap;html=1;align=center;dashed=1;" vertex="1" parent="WIyWlLk6GJQsqaUBKTNV-1">
          <mxGeometry x="-77" y="384" width="151.5" height="40" as="geometry" />
        </mxCell>
        <mxCell id="mCI2MxX1cyDvArZYnoPV-25" value="&lt;p style=&quot;line-height: 100%;&quot;&gt;&lt;font style=&quot;font-size: 12px;&quot;&gt;Data&lt;/font&gt;&lt;/p&gt;" style="ellipse;whiteSpace=wrap;html=1;" vertex="1" parent="WIyWlLk6GJQsqaUBKTNV-1">
          <mxGeometry x="862" y="-142" width="54" height="36" as="geometry" />
        </mxCell>
        <mxCell id="mCI2MxX1cyDvArZYnoPV-26" value="" style="endArrow=none;html=1;rounded=0;entryX=0;entryY=0.5;entryDx=0;entryDy=0;exitX=0.5;exitY=0;exitDx=0;exitDy=0;" edge="1" parent="WIyWlLk6GJQsqaUBKTNV-1" target="mCI2MxX1cyDvArZYnoPV-25" source="cPJrFpIsc6c82qLKrWnZ-6">
          <mxGeometry width="50" height="50" relative="1" as="geometry">
            <mxPoint x="830" y="-76" as="sourcePoint" />
            <mxPoint x="1212" y="-15" as="targetPoint" />
          </mxGeometry>
        </mxCell>
        <mxCell id="mCI2MxX1cyDvArZYnoPV-27" value="&lt;p style=&quot;line-height: 100%;&quot;&gt;&lt;font style=&quot;font-size: 12px;&quot;&gt;Luogo&lt;/font&gt;&lt;/p&gt;" style="ellipse;whiteSpace=wrap;html=1;" vertex="1" parent="WIyWlLk6GJQsqaUBKTNV-1">
          <mxGeometry x="931" y="-106" width="53" height="36" as="geometry" />
        </mxCell>
        <mxCell id="mCI2MxX1cyDvArZYnoPV-28" value="" style="endArrow=none;html=1;rounded=0;entryX=0;entryY=0.5;entryDx=0;entryDy=0;exitX=0.75;exitY=0;exitDx=0;exitDy=0;" edge="1" parent="WIyWlLk6GJQsqaUBKTNV-1" target="mCI2MxX1cyDvArZYnoPV-27" source="cPJrFpIsc6c82qLKrWnZ-6">
          <mxGeometry width="50" height="50" relative="1" as="geometry">
            <mxPoint x="882" y="-30" as="sourcePoint" />
            <mxPoint x="1264" y="31" as="targetPoint" />
          </mxGeometry>
        </mxCell>
        <mxCell id="mCI2MxX1cyDvArZYnoPV-29" value="&lt;p style=&quot;line-height: 100%;&quot;&gt;&lt;font style=&quot;font-size: 12px;&quot;&gt;Descrizione&lt;/font&gt;&lt;/p&gt;" style="ellipse;whiteSpace=wrap;html=1;" vertex="1" parent="WIyWlLk6GJQsqaUBKTNV-1">
          <mxGeometry x="936" y="-52" width="78" height="36" as="geometry" />
        </mxCell>
        <mxCell id="mCI2MxX1cyDvArZYnoPV-30" value="" style="endArrow=none;html=1;rounded=0;entryX=0;entryY=0.5;entryDx=0;entryDy=0;exitX=1;exitY=0.5;exitDx=0;exitDy=0;" edge="1" parent="WIyWlLk6GJQsqaUBKTNV-1" target="mCI2MxX1cyDvArZYnoPV-29" source="cPJrFpIsc6c82qLKrWnZ-6">
          <mxGeometry width="50" height="50" relative="1" as="geometry">
            <mxPoint x="894" y="33" as="sourcePoint" />
            <mxPoint x="1276" y="94" as="targetPoint" />
          </mxGeometry>
        </mxCell>
        <mxCell id="mCI2MxX1cyDvArZYnoPV-31" value="&lt;p style=&quot;line-height: 100%;&quot;&gt;N_telefono&lt;/p&gt;" style="ellipse;whiteSpace=wrap;html=1;" vertex="1" parent="WIyWlLk6GJQsqaUBKTNV-1">
          <mxGeometry x="832" y="110" width="71" height="36" as="geometry" />
        </mxCell>
        <mxCell id="mCI2MxX1cyDvArZYnoPV-32" value="" style="endArrow=none;html=1;rounded=0;entryX=0;entryY=1;entryDx=0;entryDy=0;exitX=0.649;exitY=0;exitDx=0;exitDy=0;exitPerimeter=0;" edge="1" parent="WIyWlLk6GJQsqaUBKTNV-1" target="mCI2MxX1cyDvArZYnoPV-31" source="cPJrFpIsc6c82qLKrWnZ-4">
          <mxGeometry width="50" height="50" relative="1" as="geometry">
            <mxPoint x="1055" y="124" as="sourcePoint" />
            <mxPoint x="1130" y="233.5" as="targetPoint" />
          </mxGeometry>
        </mxCell>
        <mxCell id="mCI2MxX1cyDvArZYnoPV-33" value="&lt;p style=&quot;line-height: 100%;&quot;&gt;&lt;font style=&quot;font-size: 12px;&quot;&gt;Email&lt;/font&gt;&lt;/p&gt;" style="ellipse;whiteSpace=wrap;html=1;" vertex="1" parent="WIyWlLk6GJQsqaUBKTNV-1">
          <mxGeometry x="909" y="138" width="65" height="36" as="geometry" />
        </mxCell>
        <mxCell id="mCI2MxX1cyDvArZYnoPV-34" value="" style="endArrow=none;html=1;rounded=0;entryX=0.875;entryY=0.1;entryDx=0;entryDy=0;exitX=0;exitY=1;exitDx=0;exitDy=0;entryPerimeter=0;" edge="1" parent="WIyWlLk6GJQsqaUBKTNV-1" target="cPJrFpIsc6c82qLKrWnZ-4" source="mCI2MxX1cyDvArZYnoPV-33">
          <mxGeometry width="50" height="50" relative="1" as="geometry">
            <mxPoint x="1055" y="139" as="sourcePoint" />
            <mxPoint x="1144" y="293" as="targetPoint" />
          </mxGeometry>
        </mxCell>
        <mxCell id="mCI2MxX1cyDvArZYnoPV-35" value="&lt;p style=&quot;line-height: 100%;&quot;&gt;&lt;font style=&quot;font-size: 12px;&quot;&gt;CAP&lt;/font&gt;&lt;/p&gt;" style="ellipse;whiteSpace=wrap;html=1;" vertex="1" parent="WIyWlLk6GJQsqaUBKTNV-1">
          <mxGeometry x="1076" y="184" width="65" height="36" as="geometry" />
        </mxCell>
        <mxCell id="mCI2MxX1cyDvArZYnoPV-36" value="" style="endArrow=none;html=1;rounded=0;entryX=0;entryY=0.5;entryDx=0;entryDy=0;exitX=1;exitY=0.5;exitDx=0;exitDy=0;" edge="1" parent="WIyWlLk6GJQsqaUBKTNV-1" target="mCI2MxX1cyDvArZYnoPV-35" source="cPJrFpIsc6c82qLKrWnZ-101">
          <mxGeometry width="50" height="50" relative="1" as="geometry">
            <mxPoint x="1196" y="186" as="sourcePoint" />
            <mxPoint x="1407.25" y="197" as="targetPoint" />
          </mxGeometry>
        </mxCell>
        <mxCell id="mCI2MxX1cyDvArZYnoPV-37" value="&lt;p style=&quot;line-height: 100%;&quot;&gt;&lt;font style=&quot;font-size: 12px;&quot;&gt;Domicilio&lt;/font&gt;&lt;/p&gt;" style="ellipse;whiteSpace=wrap;html=1;" vertex="1" parent="WIyWlLk6GJQsqaUBKTNV-1">
          <mxGeometry x="1009" y="125" width="65" height="37" as="geometry" />
        </mxCell>
        <mxCell id="mCI2MxX1cyDvArZYnoPV-38" value="" style="endArrow=none;html=1;rounded=0;entryX=0;entryY=1;entryDx=0;entryDy=0;exitX=0.729;exitY=0.024;exitDx=0;exitDy=0;exitPerimeter=0;" edge="1" parent="WIyWlLk6GJQsqaUBKTNV-1" target="mCI2MxX1cyDvArZYnoPV-37" source="cPJrFpIsc6c82qLKrWnZ-101">
          <mxGeometry width="50" height="50" relative="1" as="geometry">
            <mxPoint x="1182" y="190" as="sourcePoint" />
            <mxPoint x="1319.5" y="244" as="targetPoint" />
          </mxGeometry>
        </mxCell>
        <mxCell id="mCI2MxX1cyDvArZYnoPV-39" value="&lt;p style=&quot;line-height: 100%;&quot;&gt;Titolo&lt;/p&gt;" style="ellipse;whiteSpace=wrap;html=1;" vertex="1" parent="WIyWlLk6GJQsqaUBKTNV-1">
          <mxGeometry x="1288" y="1015" width="55" height="36" as="geometry" />
        </mxCell>
        <mxCell id="mCI2MxX1cyDvArZYnoPV-40" value="" style="endArrow=none;html=1;rounded=0;exitX=0.5;exitY=0;exitDx=0;exitDy=0;entryX=0.5;entryY=1;entryDx=0;entryDy=0;" edge="1" parent="WIyWlLk6GJQsqaUBKTNV-1" source="mCI2MxX1cyDvArZYnoPV-39" target="cPJrFpIsc6c82qLKrWnZ-8">
          <mxGeometry width="50" height="50" relative="1" as="geometry">
            <mxPoint x="1323.5" y="964" as="sourcePoint" />
            <mxPoint x="1393" y="987" as="targetPoint" />
          </mxGeometry>
        </mxCell>
        <mxCell id="mCI2MxX1cyDvArZYnoPV-41" value="&lt;p style=&quot;line-height: 100%;&quot;&gt;&lt;font style=&quot;font-size: 12px;&quot;&gt;Anno_prima_publ&lt;/font&gt;&lt;/p&gt;" style="ellipse;whiteSpace=wrap;html=1;" vertex="1" parent="WIyWlLk6GJQsqaUBKTNV-1">
          <mxGeometry x="1343" y="1064" width="110" height="36" as="geometry" />
        </mxCell>
        <mxCell id="mCI2MxX1cyDvArZYnoPV-42" value="" style="endArrow=none;html=1;rounded=0;exitX=0.5;exitY=0;exitDx=0;exitDy=0;entryX=0.75;entryY=1;entryDx=0;entryDy=0;" edge="1" parent="WIyWlLk6GJQsqaUBKTNV-1" source="mCI2MxX1cyDvArZYnoPV-41" target="cPJrFpIsc6c82qLKrWnZ-8">
          <mxGeometry width="50" height="50" relative="1" as="geometry">
            <mxPoint x="1337.5" y="953" as="sourcePoint" />
            <mxPoint x="1407" y="976" as="targetPoint" />
          </mxGeometry>
        </mxCell>
        <mxCell id="mCI2MxX1cyDvArZYnoPV-43" value="&lt;p style=&quot;line-height: 100%;&quot;&gt;N_ristampa&lt;/p&gt;" style="ellipse;whiteSpace=wrap;html=1;" vertex="1" parent="WIyWlLk6GJQsqaUBKTNV-1">
          <mxGeometry x="1388" y="844" width="80" height="36" as="geometry" />
        </mxCell>
        <mxCell id="mCI2MxX1cyDvArZYnoPV-44" value="" style="endArrow=none;html=1;rounded=0;exitX=0;exitY=0;exitDx=0;exitDy=0;entryX=0.873;entryY=0.983;entryDx=0;entryDy=0;entryPerimeter=0;" edge="1" parent="WIyWlLk6GJQsqaUBKTNV-1" source="mCI2MxX1cyDvArZYnoPV-43" target="cPJrFpIsc6c82qLKrWnZ-25">
          <mxGeometry width="50" height="50" relative="1" as="geometry">
            <mxPoint x="1421.5" y="821" as="sourcePoint" />
            <mxPoint x="1284" y="758" as="targetPoint" />
          </mxGeometry>
        </mxCell>
        <mxCell id="mCI2MxX1cyDvArZYnoPV-45" value="&lt;p style=&quot;line-height: 100%;&quot;&gt;N_pagine&lt;/p&gt;" style="ellipse;whiteSpace=wrap;html=1;" vertex="1" parent="WIyWlLk6GJQsqaUBKTNV-1">
          <mxGeometry x="1276" y="821" width="68" height="36" as="geometry" />
        </mxCell>
        <mxCell id="mCI2MxX1cyDvArZYnoPV-46" value="" style="endArrow=none;html=1;rounded=0;exitX=0;exitY=0;exitDx=0;exitDy=0;entryX=0.75;entryY=1;entryDx=0;entryDy=0;" edge="1" parent="WIyWlLk6GJQsqaUBKTNV-1" source="mCI2MxX1cyDvArZYnoPV-45" target="cPJrFpIsc6c82qLKrWnZ-25">
          <mxGeometry width="50" height="50" relative="1" as="geometry">
            <mxPoint x="1286.5" y="846" as="sourcePoint" />
            <mxPoint x="1149" y="783" as="targetPoint" />
          </mxGeometry>
        </mxCell>
        <mxCell id="mCI2MxX1cyDvArZYnoPV-47" value="&lt;p style=&quot;line-height: 100%;&quot;&gt;Editore&lt;/p&gt;" style="ellipse;whiteSpace=wrap;html=1;" vertex="1" parent="WIyWlLk6GJQsqaUBKTNV-1">
          <mxGeometry x="1372.5" y="742.5" width="54" height="36" as="geometry" />
        </mxCell>
        <mxCell id="mCI2MxX1cyDvArZYnoPV-48" value="" style="endArrow=none;html=1;rounded=0;exitX=0.009;exitY=0.5;exitDx=0;exitDy=0;entryX=1;entryY=0.75;entryDx=0;entryDy=0;exitPerimeter=0;" edge="1" parent="WIyWlLk6GJQsqaUBKTNV-1" source="mCI2MxX1cyDvArZYnoPV-47" target="cPJrFpIsc6c82qLKrWnZ-25">
          <mxGeometry width="50" height="50" relative="1" as="geometry">
            <mxPoint x="1441.5" y="841" as="sourcePoint" />
            <mxPoint x="1296" y="745" as="targetPoint" />
          </mxGeometry>
        </mxCell>
        <mxCell id="mCI2MxX1cyDvArZYnoPV-49" value="&lt;p style=&quot;line-height: 100%;&quot;&gt;Inventario&lt;/p&gt;" style="ellipse;whiteSpace=wrap;html=1;" vertex="1" parent="WIyWlLk6GJQsqaUBKTNV-1">
          <mxGeometry x="1004" y="301.5" width="65" height="36" as="geometry" />
        </mxCell>
        <mxCell id="mCI2MxX1cyDvArZYnoPV-50" value="" style="endArrow=none;html=1;rounded=0;exitX=0;exitY=0;exitDx=0;exitDy=0;entryX=1;entryY=0.75;entryDx=0;entryDy=0;" edge="1" parent="WIyWlLk6GJQsqaUBKTNV-1" source="mCI2MxX1cyDvArZYnoPV-49" target="cPJrFpIsc6c82qLKrWnZ-4">
          <mxGeometry width="50" height="50" relative="1" as="geometry">
            <mxPoint x="1037.5" y="325" as="sourcePoint" />
            <mxPoint x="900" y="262" as="targetPoint" />
          </mxGeometry>
        </mxCell>
        <mxCell id="mCI2MxX1cyDvArZYnoPV-51" value="&lt;p style=&quot;line-height: 100%;&quot;&gt;Lingua&lt;/p&gt;" style="ellipse;whiteSpace=wrap;html=1;" vertex="1" parent="WIyWlLk6GJQsqaUBKTNV-1">
          <mxGeometry x="1473" y="650" width="65" height="36" as="geometry" />
        </mxCell>
        <mxCell id="mCI2MxX1cyDvArZYnoPV-52" value="" style="endArrow=none;html=1;rounded=0;exitX=0;exitY=0.5;exitDx=0;exitDy=0;entryX=1;entryY=0;entryDx=0;entryDy=0;" edge="1" parent="WIyWlLk6GJQsqaUBKTNV-1" source="mCI2MxX1cyDvArZYnoPV-51" target="cPJrFpIsc6c82qLKrWnZ-25">
          <mxGeometry width="50" height="50" relative="1" as="geometry">
            <mxPoint x="1499.5" y="750" as="sourcePoint" />
            <mxPoint x="1362" y="687" as="targetPoint" />
          </mxGeometry>
        </mxCell>
        <mxCell id="mCI2MxX1cyDvArZYnoPV-53" value="&lt;p style=&quot;line-height: 100%;&quot;&gt;Dimensione&lt;/p&gt;" style="ellipse;whiteSpace=wrap;html=1;" vertex="1" parent="WIyWlLk6GJQsqaUBKTNV-1">
          <mxGeometry x="1486" y="710.5" width="87" height="36" as="geometry" />
        </mxCell>
        <mxCell id="mCI2MxX1cyDvArZYnoPV-54" value="" style="endArrow=none;html=1;rounded=0;exitX=0;exitY=0.347;exitDx=0;exitDy=0;entryX=1;entryY=0.25;entryDx=0;entryDy=0;exitPerimeter=0;" edge="1" parent="WIyWlLk6GJQsqaUBKTNV-1" source="mCI2MxX1cyDvArZYnoPV-53" target="cPJrFpIsc6c82qLKrWnZ-25">
          <mxGeometry width="50" height="50" relative="1" as="geometry">
            <mxPoint x="1471.5" y="871" as="sourcePoint" />
            <mxPoint x="1334" y="808" as="targetPoint" />
          </mxGeometry>
        </mxCell>
        <mxCell id="mCI2MxX1cyDvArZYnoPV-55" value="&lt;p style=&quot;line-height: 100%;&quot;&gt;Genere&lt;/p&gt;" style="ellipse;whiteSpace=wrap;html=1;" vertex="1" parent="WIyWlLk6GJQsqaUBKTNV-1">
          <mxGeometry x="1048" y="861" width="54" height="36" as="geometry" />
        </mxCell>
        <mxCell id="mCI2MxX1cyDvArZYnoPV-56" value="" style="endArrow=none;html=1;rounded=0;exitX=0;exitY=0;exitDx=0;exitDy=0;entryX=1;entryY=0.75;entryDx=0;entryDy=0;" edge="1" parent="WIyWlLk6GJQsqaUBKTNV-1" source="mCI2MxX1cyDvArZYnoPV-55" target="cPJrFpIsc6c82qLKrWnZ-7">
          <mxGeometry width="50" height="50" relative="1" as="geometry">
            <mxPoint x="1093.5" y="900" as="sourcePoint" />
            <mxPoint x="955" y="840" as="targetPoint" />
          </mxGeometry>
        </mxCell>
        <mxCell id="mCI2MxX1cyDvArZYnoPV-57" value="&lt;p style=&quot;line-height: 100%;&quot;&gt;Data_publ&lt;/p&gt;" style="ellipse;whiteSpace=wrap;html=1;" vertex="1" parent="WIyWlLk6GJQsqaUBKTNV-1">
          <mxGeometry x="1021" y="932" width="80" height="36" as="geometry" />
        </mxCell>
        <mxCell id="mCI2MxX1cyDvArZYnoPV-58" value="" style="endArrow=none;html=1;rounded=0;exitX=0;exitY=0;exitDx=0;exitDy=0;entryX=0.902;entryY=1.002;entryDx=0;entryDy=0;entryPerimeter=0;" edge="1" parent="WIyWlLk6GJQsqaUBKTNV-1" source="mCI2MxX1cyDvArZYnoPV-57" target="cPJrFpIsc6c82qLKrWnZ-7">
          <mxGeometry width="50" height="50" relative="1" as="geometry">
            <mxPoint x="1103.5" y="910" as="sourcePoint" />
            <mxPoint x="940" y="839" as="targetPoint" />
          </mxGeometry>
        </mxCell>
        <mxCell id="mCI2MxX1cyDvArZYnoPV-59" value="&lt;p style=&quot;line-height: 100%;&quot;&gt;Numero&lt;/p&gt;" style="ellipse;whiteSpace=wrap;html=1;" vertex="1" parent="WIyWlLk6GJQsqaUBKTNV-1">
          <mxGeometry x="941" y="914" width="68" height="36" as="geometry" />
        </mxCell>
        <mxCell id="mCI2MxX1cyDvArZYnoPV-60" value="" style="endArrow=none;html=1;rounded=0;exitX=0;exitY=0;exitDx=0;exitDy=0;entryX=0.674;entryY=1.002;entryDx=0;entryDy=0;entryPerimeter=0;" edge="1" parent="WIyWlLk6GJQsqaUBKTNV-1" source="mCI2MxX1cyDvArZYnoPV-59" target="cPJrFpIsc6c82qLKrWnZ-7">
          <mxGeometry width="50" height="50" relative="1" as="geometry">
            <mxPoint x="968.5" y="935" as="sourcePoint" />
            <mxPoint x="925" y="840" as="targetPoint" />
          </mxGeometry>
        </mxCell>
        <mxCell id="mCI2MxX1cyDvArZYnoPV-61" value="&lt;p style=&quot;line-height: 100%;&quot;&gt;Editore&lt;/p&gt;" style="ellipse;whiteSpace=wrap;html=1;" vertex="1" parent="WIyWlLk6GJQsqaUBKTNV-1">
          <mxGeometry x="1028" y="790" width="54" height="36" as="geometry" />
        </mxCell>
        <mxCell id="mCI2MxX1cyDvArZYnoPV-62" value="" style="endArrow=none;html=1;rounded=0;exitX=0.009;exitY=0.5;exitDx=0;exitDy=0;entryX=1;entryY=0.5;entryDx=0;entryDy=0;exitPerimeter=0;" edge="1" parent="WIyWlLk6GJQsqaUBKTNV-1" source="mCI2MxX1cyDvArZYnoPV-61" target="cPJrFpIsc6c82qLKrWnZ-7">
          <mxGeometry width="50" height="50" relative="1" as="geometry">
            <mxPoint x="1123.5" y="930" as="sourcePoint" />
            <mxPoint x="955" y="833" as="targetPoint" />
          </mxGeometry>
        </mxCell>
        <mxCell id="mCI2MxX1cyDvArZYnoPV-64" value="&lt;p style=&quot;line-height: 100%;&quot;&gt;&lt;font style=&quot;font-size: 12px;&quot;&gt;Titolo&lt;/font&gt;&lt;/p&gt;" style="ellipse;whiteSpace=wrap;html=1;" vertex="1" parent="WIyWlLk6GJQsqaUBKTNV-1">
          <mxGeometry x="789.5" y="928" width="56.5" height="36" as="geometry" />
        </mxCell>
        <mxCell id="mCI2MxX1cyDvArZYnoPV-65" value="" style="endArrow=none;html=1;rounded=0;exitX=0.5;exitY=0;exitDx=0;exitDy=0;entryX=0.25;entryY=1;entryDx=0;entryDy=0;" edge="1" parent="WIyWlLk6GJQsqaUBKTNV-1" source="mCI2MxX1cyDvArZYnoPV-64" target="cPJrFpIsc6c82qLKrWnZ-7">
          <mxGeometry width="50" height="50" relative="1" as="geometry">
            <mxPoint x="764" y="821" as="sourcePoint" />
            <mxPoint x="834.5" y="847" as="targetPoint" />
          </mxGeometry>
        </mxCell>
        <mxCell id="mCI2MxX1cyDvArZYnoPV-68" value="&lt;p style=&quot;line-height: 100%;&quot;&gt;&lt;font style=&quot;font-size: 12px;&quot;&gt;Titolo&lt;/font&gt;&lt;/p&gt;" style="ellipse;whiteSpace=wrap;html=1;" vertex="1" parent="WIyWlLk6GJQsqaUBKTNV-1">
          <mxGeometry x="260" y="880" width="56.5" height="36" as="geometry" />
        </mxCell>
        <mxCell id="mCI2MxX1cyDvArZYnoPV-69" value="" style="endArrow=none;html=1;rounded=0;exitX=0.5;exitY=0;exitDx=0;exitDy=0;entryX=0;entryY=0.5;entryDx=0;entryDy=0;" edge="1" parent="WIyWlLk6GJQsqaUBKTNV-1" source="mCI2MxX1cyDvArZYnoPV-68" target="cPJrFpIsc6c82qLKrWnZ-9">
          <mxGeometry width="50" height="50" relative="1" as="geometry">
            <mxPoint x="234.5" y="773" as="sourcePoint" />
            <mxPoint x="327.5" y="784" as="targetPoint" />
          </mxGeometry>
        </mxCell>
        <mxCell id="mCI2MxX1cyDvArZYnoPV-70" value="&lt;p style=&quot;line-height: 100%;&quot;&gt;Genere&lt;/p&gt;" style="ellipse;whiteSpace=wrap;html=1;" vertex="1" parent="WIyWlLk6GJQsqaUBKTNV-1">
          <mxGeometry x="564.5" y="867" width="54" height="36" as="geometry" />
        </mxCell>
        <mxCell id="mCI2MxX1cyDvArZYnoPV-71" value="" style="endArrow=none;html=1;rounded=0;exitX=0;exitY=0;exitDx=0;exitDy=0;entryX=1;entryY=0.5;entryDx=0;entryDy=0;" edge="1" parent="WIyWlLk6GJQsqaUBKTNV-1" source="mCI2MxX1cyDvArZYnoPV-70" target="cPJrFpIsc6c82qLKrWnZ-9">
          <mxGeometry width="50" height="50" relative="1" as="geometry">
            <mxPoint x="648.5" y="900" as="sourcePoint" />
            <mxPoint x="502" y="824" as="targetPoint" />
          </mxGeometry>
        </mxCell>
        <mxCell id="mCI2MxX1cyDvArZYnoPV-72" value="&lt;p style=&quot;line-height: 100%;&quot;&gt;Editore&lt;/p&gt;" style="ellipse;whiteSpace=wrap;html=1;" vertex="1" parent="WIyWlLk6GJQsqaUBKTNV-1">
          <mxGeometry x="583" y="790" width="54" height="36" as="geometry" />
        </mxCell>
        <mxCell id="mCI2MxX1cyDvArZYnoPV-73" value="" style="endArrow=none;html=1;rounded=0;exitX=0.009;exitY=0.5;exitDx=0;exitDy=0;entryX=1;entryY=0.25;entryDx=0;entryDy=0;exitPerimeter=0;" edge="1" parent="WIyWlLk6GJQsqaUBKTNV-1" source="mCI2MxX1cyDvArZYnoPV-72" target="cPJrFpIsc6c82qLKrWnZ-9">
          <mxGeometry width="50" height="50" relative="1" as="geometry">
            <mxPoint x="678.5" y="930" as="sourcePoint" />
            <mxPoint x="502" y="817" as="targetPoint" />
          </mxGeometry>
        </mxCell>
      </root>
    </mxGraphModel>
  </diagram>
</mxfile>
